<svg width="21" height="20" viewBox="0 0 21 20" fill="none" xmlns="http://www.w3.org/2000/svg">
<path fill-rule="evenodd" clip-rule="evenodd" d="M10.8 0C5.27944 0 0.800049 4.47939 0.800049 10C0.800049 15.5206 5.27944 20 10.8 20C16.3098 20 20.8 15.5206 20.8 10C20.8 4.47939 16.3098 0 10.8 0ZM17.4052 4.60954C18.5983 6.06291 19.3142 7.91756 19.3359 9.92406C19.0539 9.86987 16.2339 9.295 13.3922 9.65294C13.3272 9.51194 13.2729 9.36006 13.2079 9.20825C13.0343 8.79613 12.8391 8.37312 12.6439 7.97181C15.7892 6.692 17.2209 4.84816 17.4052 4.60954ZM10.8 1.47506C12.9692 1.47506 14.954 2.28851 16.4617 3.62256C16.3098 3.83948 15.0191 5.56399 11.9822 6.70281C10.5831 4.13232 9.03217 2.0282 8.79355 1.70282C9.43342 1.55097 10.1059 1.47506 10.8 1.47506ZM7.16667 2.27766C7.39442 2.58134 8.91286 4.69631 10.3337 7.21256C6.34235 8.2755 2.81741 8.25381 2.43779 8.25381C2.99094 5.60738 4.78052 3.40564 7.16667 2.27766ZM2.25341 10.0109C2.25341 9.92406 2.25341 9.83731 2.25341 9.75056C2.62217 9.76137 6.76534 9.81562 11.0278 8.53581C11.2773 9.013 11.505 9.50106 11.722 9.98913C11.6135 10.0217 11.4942 10.0542 11.3857 10.0867C6.98226 11.5076 4.63953 15.3904 4.4443 15.7158C3.08855 14.2082 2.25341 12.2018 2.25341 10.0109ZM10.8 18.5466C8.82605 18.5466 7.00395 17.8742 5.56144 16.7462C5.71328 16.4317 7.44861 13.0911 12.2642 11.41C12.2859 11.3991 12.2968 11.3991 12.3185 11.3883C13.5224 14.5011 14.0105 17.1149 14.1406 17.8633C13.1102 18.308 11.9822 18.5466 10.8 18.5466ZM15.5614 17.0824C15.4747 16.5618 15.0191 14.0673 13.902 10.9978C16.581 10.5748 18.9237 11.269 19.2165 11.3666C18.8478 13.7419 17.4812 15.7917 15.5614 17.0824Z" fill="#2B2E4A"/>
</svg>
