<svg width="32" height="32" viewBox="0 0 32 32" fill="none" xmlns="http://www.w3.org/2000/svg">
<g clip-path="url(#clip0_384_1265)">
<path d="M31.8364 5.79634C31.8281 5.01015 31.6609 4.23376 31.3449 3.51381C31.0289 2.79386 30.5707 2.1452 29.9977 1.60679C27.7091 -0.559742 24.0028 -0.478272 21.736 1.7885L18.1527 5.37201C17.4074 4.69313 16.4295 4.32716 15.4217 4.35002C14.4138 4.37288 13.4535 4.78281 12.7398 5.49479L11.592 6.64254C11.1029 7.13281 10.8282 7.79709 10.8282 8.48965C10.8282 9.1822 11.1029 9.84648 11.592 10.3367L11.9284 10.6729L3.70876 18.8922C2.95748 19.6465 2.40121 20.5724 2.08802 21.59C1.77483 22.6075 1.71414 23.6859 1.91121 24.7322L0.313984 28.391C0.131686 28.804 0.0789889 29.2625 0.162856 29.7061C0.246722 30.1497 0.463205 30.5574 0.783698 30.8754C1.02493 31.1184 1.31182 31.3113 1.62787 31.4431C1.94393 31.5749 2.28291 31.6429 2.62533 31.6432C2.98701 31.6427 3.3447 31.5675 3.67594 31.4223L7.10451 29.9255C8.15074 30.1226 9.22923 30.0619 10.2467 29.7487C11.2643 29.4355 12.1902 28.8792 12.9445 28.1279L21.1638 19.9085L21.5001 20.2447C21.9904 20.7338 22.6547 21.0085 23.3472 21.0085C24.0398 21.0085 24.704 20.7338 25.1943 20.2447L26.3421 19.0969C27.0541 18.3832 27.464 17.4229 27.4869 16.415C27.5097 15.4071 27.1437 14.4292 26.4647 13.684L30.1153 10.0334C30.6729 9.47958 31.1128 8.81876 31.4086 8.09064C31.7043 7.36252 31.8499 6.58212 31.8364 5.79634V5.79634ZM11.0973 26.2806C10.61 26.7659 10.0039 27.115 9.33947 27.2931C8.67508 27.4711 7.97563 27.4718 7.31088 27.2951C7.0253 27.219 6.72234 27.2419 6.45145 27.3601L2.94598 28.8904L4.47643 25.3849C4.59463 25.114 4.61748 24.811 4.54125 24.5255C4.36464 23.8607 4.36537 23.1613 4.54339 22.4969C4.7214 21.8325 5.07046 21.2264 5.55578 20.739L13.7752 12.5198L19.3166 18.0612L11.0973 26.2806Z" fill="black"/>
</g>
<defs>
<clipPath id="clip0_384_1265">
<rect width="32" height="31.6735" fill="white"/>
</clipPath>
</defs>
</svg>
