<svg width="40" height="40" viewBox="0 0 40 40" fill="none" xmlns="http://www.w3.org/2000/svg">
<path d="M32.4666 20.6166C29.7 13.4166 19.4166 13.3332 23.3166 1.6499C15.8666 4.9999 9.96663 13.6166 15.8 24.9999C7.54996 21.5332 11.1666 12.8499 11.1666 12.8499C11.1666 12.8499 6.66663 15.6166 6.66663 23.9832C7.29996 33.3166 15.1833 36.1832 18.0166 36.5499C22.0666 37.0666 26.45 36.3166 29.6 33.4332C33.0666 30.2166 34.3333 25.0832 32.4666 20.6166ZM17 28.9999C19.4 28.4166 20.6333 26.6832 20.9666 25.1499C21.5166 22.7666 19.3666 20.4332 20.8166 16.6666C21.3666 19.7832 26.2666 21.7332 26.2666 25.1332C26.4 29.3499 21.8333 32.9666 17 28.9999Z" fill="#3742FA"/>
</svg>
