<svg width="15" height="20" viewBox="0 0 15 20" fill="none" xmlns="http://www.w3.org/2000/svg">
<g clip-path="url(#clip0_2_400)">
<path d="M11.1334 13.3333C12.9744 13.3333 14.4668 11.8409 14.4668 9.99996C14.4668 8.15901 12.9744 6.66663 11.1334 6.66663C9.29249 6.66663 7.80011 8.15901 7.80011 9.99996C7.80011 11.8409 9.29249 13.3333 11.1334 13.3333Z" fill="#2B2E4A"/>
<path fill-rule="evenodd" clip-rule="evenodd" d="M4.46682 20C5.35087 20 6.19872 19.6488 6.82384 19.0237C7.44896 18.3986 7.80015 17.5508 7.80015 16.6667V13.3334H4.46682C3.58276 13.3334 2.73492 13.6846 2.10979 14.3097C1.48467 14.9348 1.13348 15.7827 1.13348 16.6667C1.13348 17.5508 1.48467 18.3986 2.10979 19.0237C2.73492 19.6488 3.58276 20 4.46682 20Z" fill="#2B2E4A"/>
<path fill-rule="evenodd" clip-rule="evenodd" d="M4.46682 13.3333H7.80015V6.66663H4.46682C3.58276 6.66663 2.73492 7.01782 2.10979 7.64294C1.48467 8.26806 1.13348 9.1159 1.13348 9.99996C1.13348 10.884 1.48467 11.7319 2.10979 12.357C2.73492 12.9821 3.58276 13.3333 4.46682 13.3333Z" fill="#2B2E4A"/>
<path fill-rule="evenodd" clip-rule="evenodd" d="M4.46682 6.66667H7.80015V0H4.46682C3.58276 0 2.73492 0.35119 2.10979 0.976311C1.48467 1.60143 1.13348 2.44928 1.13348 3.33333C1.13348 4.21739 1.48467 5.06524 2.10979 5.69036C2.73492 6.31548 3.58276 6.66667 4.46682 6.66667Z" fill="#2B2E4A"/>
<path fill-rule="evenodd" clip-rule="evenodd" d="M11.1334 6.66667H7.80011V0H11.1334C12.0175 0 12.8653 0.35119 13.4905 0.976311C14.1156 1.60143 14.4668 2.44928 14.4668 3.33333C14.4668 4.21739 14.1156 5.06524 13.4905 5.69036C12.8653 6.31548 12.0175 6.66667 11.1334 6.66667Z" fill="#2B2E4A"/>
</g>
<defs>
<clipPath id="clip0_2_400">
<rect width="14" height="20" fill="white" transform="translate(0.800049)"/>
</clipPath>
</defs>
</svg>
