<svg width="1411" height="826" viewBox="0 0 1411 826" fill="none" xmlns="http://www.w3.org/2000/svg">
<path d="M851.85 651.56C851.85 617.27 825.95 589.01 792.54 585.33V584.89H785.18C748.39 584.89 718.51 614.77 718.51 651.56C718.51 688.35 748.39 718.23 785.18 718.23H792.54V717.79C825.95 714.11 851.85 685.85 851.85 651.56Z" fill="#B1B5BA"/>
<path d="M792.54 718.23C829.361 718.23 859.21 688.381 859.21 651.56C859.21 614.739 829.361 584.89 792.54 584.89C755.719 584.89 725.87 614.739 725.87 651.56C725.87 688.381 755.719 718.23 792.54 718.23Z" fill="#858990"/>
<path d="M792.54 710.87C825.296 710.87 851.85 684.316 851.85 651.56C851.85 618.804 825.296 592.25 792.54 592.25C759.784 592.25 733.23 618.804 733.23 651.56C733.23 684.316 759.784 710.87 792.54 710.87Z" fill="white"/>
<path d="M792.54 710.87C825.296 710.87 851.85 684.316 851.85 651.56C851.85 618.804 825.296 592.25 792.54 592.25C759.784 592.25 733.23 618.804 733.23 651.56C733.23 684.316 759.784 710.87 792.54 710.87Z" fill="#858990"/>
<path opacity="0.9" d="M792.54 710.87C825.296 710.87 851.85 684.316 851.85 651.56C851.85 618.804 825.296 592.25 792.54 592.25C759.784 592.25 733.23 618.804 733.23 651.56C733.23 684.316 759.784 710.87 792.54 710.87Z" fill="white"/>
<path d="M792.54 592.25C791.51 592.25 790.48 592.25 789.3 592.4C820.5 594.02 845.37 619.92 845.37 651.56C845.37 683.2 820.5 709.1 789.3 710.72C790.33 710.72 791.36 710.87 792.54 710.87C825.36 710.87 851.85 684.38 851.85 651.56C851.85 618.74 825.36 592.25 792.54 592.25Z" fill="#B1B5BA"/>
<path d="M793.13 656.12L773.41 616.97C772.67 615.5 773.26 613.59 774.73 612.85C776.2 612.11 778.11 612.7 778.85 614.17L795.77 647.87L818.29 636.83C819.76 636.09 821.67 636.68 822.41 638.3C823.15 639.77 822.56 641.68 820.94 642.42L793.13 656.12Z" fill="black"/>
<path opacity="0.5" d="M843.32 682.02C848.77 673.04 851.86 662.59 851.86 651.41C851.86 618.59 825.37 592.1 792.55 592.1C790.93 592.1 789.31 592.25 787.69 592.25L843.32 682.02Z" fill="white"/>
<path opacity="0.5" d="M778.71 593.87C775.77 594.61 772.97 595.49 770.32 596.52L831.69 696C834.04 693.94 836.25 691.58 838.31 689.08L778.71 593.87Z" fill="white"/>
<path d="M1327.67 823.19L1409.83 393.55C1411.74 383.58 1410.9 373.29 1407.41 363.76L1323.5 134.82C1316.13 114.72 1297.94 100.57 1276.64 98.39L329.88 1.15995C316.18 -0.250047 302.43 3.44995 291.28 11.5299L23.7401 205.55C6.66014 217.94 -2.00986 238.88 1.32014 259.72L91.4602 824.07L1327.67 823.19Z" fill="#FFF0B5"/>
<path d="M253.5 136.36H1113.89C1119.2 136.36 1123.5 140.66 1123.5 145.97V814.45C1123.5 819.76 1119.2 824.06 1113.89 824.06H253.5C248.19 824.06 243.89 819.76 243.89 814.45V145.96C243.89 140.66 248.2 136.36 253.5 136.36Z" fill="#B1B5BA"/>
<path d="M1113.98 136.36H253.42C248.16 136.36 243.9 140.62 243.9 145.88V168.33H1123.51V145.88C1123.5 140.62 1119.24 136.36 1113.98 136.36Z" fill="#263238"/>
<path d="M236.42 168.33H1116.03V814.42C1116.03 819.7 1111.75 823.99 1106.46 823.99H245.98C240.7 823.99 236.41 819.71 236.41 814.42V168.33H236.42Z" fill="black"/>
<path d="M236.42 168.33H1116.03V814.46C1116.03 819.72 1111.77 823.98 1106.51 823.98H245.94C240.68 823.98 236.42 819.72 236.42 814.46V168.33Z" fill="#D9DCDE"/>
<path d="M1106.46 136.36H245.98C240.7 136.36 236.41 140.64 236.41 145.93V168.33H1116.02V145.93C1116.03 140.64 1111.74 136.36 1106.46 136.36Z" fill="black"/>
<path d="M1106.5 136.36H245.94C240.68 136.36 236.42 140.62 236.42 145.88V168.33H1116.03V145.88C1116.03 140.62 1111.76 136.36 1106.5 136.36Z" fill="#61656D"/>
<path d="M1347.08 825.22H66.9601C66.6101 825.22 66.3701 824.98 66.3701 824.63C66.3701 824.28 66.6101 824.04 66.9601 824.04H1347.19C1347.54 824.04 1347.78 824.28 1347.78 824.63C1347.78 824.99 1347.43 825.22 1347.08 825.22Z" fill="#565656"/>
<path d="M286.18 386.38L286.19 736.99L744.98 736.97L744.97 386.36C744.97 377.33 737.65 370.01 728.62 370.01L302.54 370.03C293.5 370.02 286.18 377.35 286.18 386.38Z" fill="#B1B5BA"/>
<g opacity="0.3">
<path opacity="0.3" d="M1244.45 200.55L1247.39 200.73C1247.75 200.73 1248.01 200.46 1248.1 200.11C1248.1 199.75 1247.83 199.49 1247.48 199.4L1244.54 199.22C1243.83 199.13 1243.2 198.51 1243.29 197.79C1243.38 197.08 1244 196.45 1244.72 196.54C1245.08 196.54 1245.34 196.27 1245.43 195.92C1245.52 195.56 1245.16 195.3 1244.81 195.21C1243.38 195.12 1242.13 196.19 1241.95 197.62C1241.95 199.21 1243.03 200.46 1244.45 200.55Z" fill="black"/>
</g>
<path opacity="0.15" d="M275.72 410.06C274.71 410.37 273.71 410.44 272.67 410.25L261.76 408.27L272.66 411.16C273.73 411.44 274.87 411.29 275.82 410.73L276.59 410.28L275.72 410.06Z" fill="black"/>
<path opacity="0.15" d="M261.23 411.97L279.35 415.82C279.35 415.82 279.72 416.41 279.77 416.81L261.23 411.97Z" fill="black"/>
<path opacity="0.15" d="M272.98 417.4L267.08 413.49L267.69 413.65L273.16 416.8C273.16 416.8 273.18 416.9 272.98 417.4Z" fill="black"/>
<path opacity="0.4" d="M1241.99 273.31L1229.44 256.18L1215.63 271.5L1225.63 242.78L1237.13 233.39C1237.13 233.39 1235.82 234.46 1234.71 240.68C1233.96 244.88 1233.97 252.45 1233.97 252.45C1234.57 255.98 1236.4 260.75 1237.77 263.91L1241.99 273.31Z" fill="black"/>
<path opacity="0.4" d="M1267.82 269.85L1277.98 263.38L1297.15 277.64L1287.04 245.55L1278.8 233.89L1278.87 239.71C1278.99 250.15 1275.66 260.43 1269.01 268.47C1268.61 268.95 1268.22 269.4 1267.82 269.85Z" fill="black"/>
<path d="M1275.02 150.9C1286.23 150.9 1289.99 163.46 1289.99 178.64C1289.99 193.81 1286.63 202.7 1275.42 202.7C1264.21 202.7 1255.12 193.81 1255.12 178.64C1255.12 163.46 1263.81 150.9 1275.02 150.9Z" fill="#3F4249"/>
<path d="M1273.37 437.83C1260.88 327.27 1283.36 259.71 1291.31 236.42L1278.73 233.03L1237.15 233.39L1231.88 235.26C1230.81 255.96 1216 348.77 1201.72 437.74H1273.38V437.83H1273.37Z" fill="white"/>
<path d="M1230.8 805.13L1169.67 806.56L1192.78 790.05C1196.62 787.28 1199.03 782.91 1199.21 778.18L1200.01 760.06L1230.53 760.15L1230.8 805.13Z" fill="#F79898"/>
<path opacity="0.15" d="M1221.16 783.98V783.62C1221.34 781.57 1219.91 779.78 1217.95 779.52L1199.48 776.84L1199.66 773.18H1230.54L1230.81 804.21L1202.52 801.11L1210.82 797.81C1216.61 795.49 1220.63 790.14 1221.16 783.98Z" fill="black"/>
<path d="M1300.58 804.06H1274.53L1269.71 759.98L1300.49 760.06L1300.58 804.06Z" fill="#F79898"/>
<path opacity="0.15" d="M1294.07 796.65L1293.45 783.09C1293.36 781.31 1292.02 779.88 1290.24 779.61L1271.5 776.75L1271.05 773L1300.41 773.09L1300.5 804.32L1294.07 796.65Z" fill="black"/>
<path d="M1319.23 412.75L1302.27 773.18H1268.45L1255.96 479.32C1255.78 477.36 1254.18 475.93 1252.21 475.93C1250.34 475.93 1248.73 477.36 1248.55 479.32L1218.86 610.12L1231.6 773.18H1197.78L1172.16 610.33L1195.63 412.75H1319.23Z" fill="black"/>
<path opacity="0.2" d="M1319.23 412.75L1302.27 773.18H1268.45L1255.96 479.32C1255.78 477.36 1254.18 475.93 1252.21 475.93C1250.34 475.93 1248.73 477.36 1248.55 479.32L1218.86 610.12L1231.6 773.18H1197.78L1172.16 610.33L1195.63 412.75H1319.23Z" fill="white"/>
<path d="M1298.62 788.53L1297.82 787.73C1291.75 781.66 1281.31 781.75 1275.42 788L1274.97 788.54C1273.45 790.15 1272.65 792.2 1272.65 794.25V797.64C1272.65 799.6 1272.38 801.57 1271.76 803.44L1268.99 812.63C1268.28 814.86 1267.92 817.18 1267.92 819.5V820.66C1267.92 822.44 1269.53 823.87 1271.4 823.87H1303.44C1305.4 823.87 1306.92 822.44 1306.92 820.66V820.21C1306.92 817.53 1306.47 814.86 1305.58 812.27L1302.37 803.26C1301.66 801.21 1301.21 799.07 1301.21 796.83L1301.12 794.24C1301.03 792.19 1300.14 790.14 1298.62 788.53Z" fill="#3F4249"/>
<path d="M1303.17 773.18H1267.12L1266.41 765.78H1303.08L1303.17 773.18Z" fill="black"/>
<path opacity="0.15" d="M1303.17 773.18H1288.09L1287.73 765.78H1303.08L1303.17 773.18Z" fill="black"/>
<path opacity="0.5" d="M1306.92 820.21V820.66C1306.92 822.44 1305.31 823.87 1303.44 823.87H1271.4C1269.44 823.87 1267.92 822.44 1267.92 820.66V819.5C1267.92 819.05 1267.92 818.61 1268.01 818.16H1306.92C1306.92 818.78 1306.92 819.5 1306.92 820.21Z" fill="black"/>
<path d="M1231.6 794.87V817.45C1231.6 821.11 1228.66 824.05 1225 824.05H1148.26C1146.74 824.05 1145.49 822.8 1145.49 821.28C1145.49 815.93 1148.97 811.11 1154.06 809.41L1171.37 803.7L1193.32 786.66C1195.55 784.88 1198.76 784.96 1200.99 786.84L1210.72 795.14C1212.15 796.39 1214.11 796.75 1215.9 796.21L1228.21 792.37C1230 791.92 1231.6 793.17 1231.6 794.87Z" fill="#3F4249"/>
<path d="M1225 824.05H1148.26C1146.74 824.05 1145.49 822.8 1145.49 821.28C1145.49 820.3 1145.58 819.41 1145.85 818.51H1231.52C1230.98 821.64 1228.3 824.05 1225 824.05Z" fill="black"/>
<path d="M1193.77 795.67C1193.95 795.67 1194.13 795.58 1194.22 795.49C1194.49 795.22 1194.49 794.78 1194.22 794.51L1189.58 789.51C1189.31 789.24 1188.87 789.24 1188.6 789.51C1188.33 789.78 1188.33 790.22 1188.6 790.49L1193.24 795.49C1193.41 795.58 1193.59 795.67 1193.77 795.67Z" fill="white"/>
<path d="M1190.11 798.53C1190.29 798.53 1190.47 798.44 1190.56 798.35C1190.83 798.08 1190.83 797.64 1190.56 797.37L1185.92 792.37C1185.65 792.1 1185.21 792.1 1184.94 792.37C1184.67 792.64 1184.67 793.08 1184.94 793.35L1189.58 798.35C1189.75 798.44 1189.93 798.53 1190.11 798.53Z" fill="white"/>
<path d="M1186.45 801.38C1186.63 801.38 1186.81 801.29 1186.9 801.2C1187.17 800.93 1187.17 800.49 1186.9 800.22L1182.26 795.22C1181.99 794.95 1181.55 794.95 1181.28 795.22C1181.01 795.49 1181.01 795.93 1181.28 796.2L1185.92 801.2C1186 801.29 1186.18 801.38 1186.45 801.38Z" fill="white"/>
<path d="M1280.77 796.12C1280.86 796.12 1281.04 796.12 1281.13 796.03C1287.2 793 1292.91 796.03 1292.91 796.03C1293.27 796.21 1293.8 796.12 1293.98 795.67C1294.16 795.31 1294.07 794.78 1293.62 794.6C1293.35 794.42 1287.19 791.21 1280.32 794.6C1279.96 794.78 1279.78 795.31 1279.96 795.67C1280.15 795.94 1280.42 796.12 1280.77 796.12Z" fill="white"/>
<path d="M1280.77 800.22C1280.86 800.22 1281.04 800.22 1281.13 800.13C1287.29 797.1 1292.91 800.13 1292.91 800.13C1293.27 800.31 1293.8 800.22 1293.98 799.77C1294.16 799.41 1294.07 798.88 1293.62 798.7C1293.35 798.52 1287.19 795.31 1280.32 798.7C1279.96 798.88 1279.78 799.41 1279.96 799.77C1280.15 800.04 1280.42 800.22 1280.77 800.22Z" fill="white"/>
<path d="M1280.77 804.24C1280.86 804.24 1281.04 804.24 1281.13 804.15C1287.2 801.12 1292.91 804.15 1292.91 804.15C1293.27 804.33 1293.8 804.24 1293.98 803.79C1294.16 803.43 1294.07 802.9 1293.62 802.72C1293.35 802.54 1287.19 799.33 1280.32 802.72C1279.96 802.9 1279.78 803.43 1279.96 803.79C1280.15 804.06 1280.42 804.24 1280.77 804.24Z" fill="white"/>
<path opacity="0.15" d="M1216.6 771.67L1198.18 611.69L1230.44 491.64C1231.51 482.72 1239.1 476.02 1248.02 476.02H1252.21C1250.34 476.02 1248.73 477.45 1248.55 479.41L1218.86 610.12L1231.48 771.66L1216.6 771.67Z" fill="black"/>
<path d="M1232.5 773.18H1196.53L1195.75 765.78H1233.21L1232.5 773.18Z" fill="black"/>
<path opacity="0.15" d="M1232.5 773.18H1216.65L1216 765.78H1233.21L1232.5 773.18Z" fill="black"/>
<path d="M1237.85 184.66C1237.85 184.66 1274.26 161.82 1275.69 189.75L1276.23 196.98L1278.73 233.57C1278.73 234.64 1237.41 235 1237.59 233.66L1239.91 211.98C1239.46 210.11 1239.2 207.96 1239.2 205.55C1238.83 194.57 1237.85 184.66 1237.85 184.66Z" fill="#F79898"/>
<path d="M1282.83 234.66C1282.9 235.07 1282.92 235.45 1282.92 235.87C1282.92 243.52 1271.83 249.71 1258.15 249.71C1244.47 249.71 1233.38 243.51 1233.38 235.87C1233.38 235.04 1233.51 234.22 1233.76 233.43" fill="black"/>
<path d="M1258.16 246.08C1269.56 246.08 1278.8 240.918 1278.8 234.55C1278.8 228.182 1269.56 223.02 1258.16 223.02C1246.76 223.02 1237.52 228.182 1237.52 234.55C1237.52 240.918 1246.76 246.08 1258.16 246.08Z" fill="#F79898"/>
<path d="M1234.64 186.35C1241.44 186.35 1246.95 180.839 1246.95 174.04C1246.95 167.241 1241.44 161.73 1234.64 161.73C1227.84 161.73 1222.33 167.241 1222.33 174.04C1222.33 180.839 1227.84 186.35 1234.64 186.35Z" fill="#3F4249"/>
<path d="M1233.74 164.94C1233.74 164.94 1220.8 219.2 1248.64 222.85C1272.73 226.06 1275.41 188.49 1275.41 188.49L1274.25 164.13L1233.74 164.94Z" fill="#F79898"/>
<path d="M1271.22 182.08C1271.5 195.19 1266.32 202.64 1266.32 202.64C1236.49 198.61 1231.86 204.09 1231.86 204.09C1231.86 204.09 1233.67 218.97 1245.97 222.19C1258.26 225.41 1276.83 217.81 1276.77 200.99C1276.75 196.83 1269.94 174.37 1269.94 174.37L1271.22 182.08Z" fill="#3F4249"/>
<g opacity="0.3">
<path opacity="0.3" d="M1246.59 212.68C1246.59 212.77 1246.68 212.77 1246.59 212.68C1248.91 212.86 1249.98 212.95 1249.98 212.95C1250.43 212.95 1250.69 212.68 1250.78 212.24C1250.78 211.79 1250.51 211.44 1250.07 211.44C1250.07 211.44 1249 211.35 1246.77 211.17C1246.32 211.17 1245.97 211.44 1245.97 211.79C1245.97 212.33 1246.24 212.68 1246.59 212.68Z" fill="black"/>
</g>
<path d="M1245.43 209.51C1251.5 210.4 1254.26 207.1 1255.25 205.49C1255.43 205.13 1255.25 203.85 1254.89 203.58C1254.53 203.4 1241.95 206.61 1241.77 206.97C1241.68 207.33 1241.95 208.61 1242.31 208.79C1243.47 209.15 1244.54 209.42 1245.43 209.51Z" fill="white"/>
<path d="M1247.65 172.41C1258.56 172.41 1267.41 165.394 1267.41 156.74C1267.41 148.086 1258.56 141.07 1247.65 141.07C1236.74 141.07 1227.89 148.086 1227.89 156.74C1227.89 165.394 1236.74 172.41 1247.65 172.41Z" fill="#3F4249"/>
<path d="M1273.28 151.16C1280.11 151.16 1285.66 158.15 1285.66 166.77C1285.66 175.39 1280.12 184.25 1273.28 184.25C1266.44 184.25 1260.9 175.39 1260.9 166.77C1260.9 158.15 1266.45 151.16 1273.28 151.16Z" fill="#3F4249"/>
<path opacity="0.15" d="M1276.22 198.76C1276.22 198.76 1273.9 198.94 1272.65 197.96L1276.58 204.03L1276.22 198.76Z" fill="black"/>
<path d="M1272.8 184.17C1272.8 184.17 1276.67 179.22 1282.02 181.54C1288.09 184.22 1286.84 197.96 1276.58 198.76C1271.23 199.21 1272.3 196.08 1273.19 191.89C1273.28 186.89 1272.8 184.17 1272.8 184.17Z" fill="#F79898"/>
<path opacity="0.3" d="M1282.29 185.11C1281.22 184.4 1280.24 184.13 1279.35 184.31C1278.46 184.49 1277.65 185.11 1277.03 186.18C1276.41 187.25 1276.05 188.5 1276.05 189.93L1275.96 191.09C1275.96 191.45 1276.23 191.71 1276.58 191.71C1276.94 191.71 1277.2 191.44 1277.2 191.09L1277.29 189.93C1277.29 189.57 1277.47 187.79 1278.09 186.81C1278.54 186.1 1279.07 185.65 1279.61 185.47C1280.15 185.38 1280.86 185.56 1281.57 186.01C1281.84 186.19 1282.28 186.1 1282.46 185.83C1282.65 185.73 1282.56 185.38 1282.29 185.11Z" fill="black"/>
<path d="M1233.56 169.32C1234.64 170.13 1236.99 171.21 1236.99 171.21C1237.24 171.3 1237.64 171.26 1237.76 170.93C1237.88 170.6 1237.81 170.28 1237.48 170.16C1237.48 170.16 1234.24 168.24 1233.94 168.03C1233.36 167.53 1232.44 166.86 1231.43 165.71C1231.24 165.45 1230.88 165.41 1230.62 165.6C1230.36 165.79 1230.32 166.15 1230.51 166.41C1231.44 167.7 1233.2 169.04 1233.56 169.32Z" fill="#F79898"/>
<path opacity="0.15" d="M1238.4 226.81L1239.19 218.49C1242.17 221.35 1247.09 223.56 1254.76 222.77C1254.76 222.77 1259.96 222.39 1265.51 219.4C1265.91 219.15 1266.16 219.12 1266.4 219.33C1266.59 219.59 1266.5 219.83 1266.28 220.04C1265.19 220.97 1261.04 223.04 1254.53 223.99C1245.46 229.79 1238.4 226.81 1238.4 226.81Z" fill="black"/>
<path d="M1253.73 192.52C1254.96 192.52 1255.96 191.521 1255.96 190.29C1255.96 189.058 1254.96 188.06 1253.73 188.06C1252.5 188.06 1251.5 189.058 1251.5 190.29C1251.5 191.521 1252.5 192.52 1253.73 192.52Z" fill="#21252B"/>
<path d="M1252.75 190.02C1253 190.02 1253.2 189.818 1253.2 189.57C1253.2 189.321 1253 189.12 1252.75 189.12C1252.5 189.12 1252.3 189.321 1252.3 189.57C1252.3 189.818 1252.5 190.02 1252.75 190.02Z" fill="white"/>
<path d="M1236.07 192.6C1237.3 192.6 1238.3 191.601 1238.3 190.37C1238.3 189.138 1237.3 188.14 1236.07 188.14C1234.84 188.14 1233.84 189.138 1233.84 190.37C1233.84 191.601 1234.84 192.6 1236.07 192.6Z" fill="#21252B"/>
<path d="M1235.08 190.109C1235.33 190.109 1235.53 189.908 1235.53 189.659C1235.53 189.411 1235.33 189.209 1235.08 189.209C1234.83 189.209 1234.63 189.411 1234.63 189.659C1234.63 189.908 1234.83 190.109 1235.08 190.109Z" fill="white"/>
<path d="M1226.52 187.79V190.29C1226.52 195.11 1230.45 199.04 1235.27 199.04C1240.09 199.04 1244.02 195.11 1244.02 190.29V187.79C1244.02 187.08 1243.84 186.36 1243.4 185.83H1246.79C1246.34 186.37 1246.08 187.08 1246.08 187.79V190.29C1246.08 195.11 1250.01 199.04 1254.83 199.04C1259.65 199.04 1263.58 195.11 1263.58 190.29V187.79C1263.58 186.01 1262.15 184.58 1260.37 184.58H1249.39H1249.3H1240.82H1239.48H1229.75C1227.94 184.57 1226.52 186 1226.52 187.79ZM1249.18 185.91H1249.27H1260.25C1261.32 185.91 1262.21 186.8 1262.21 187.87V190.37C1262.21 194.47 1258.82 197.78 1254.71 197.78C1250.61 197.78 1247.3 194.39 1247.3 190.28V187.78C1247.31 186.72 1248.2 185.91 1249.18 185.91ZM1227.68 187.88C1227.68 186.81 1228.57 185.92 1229.64 185.92H1239.37H1240.71C1241.78 185.92 1242.67 186.81 1242.67 187.88V190.38C1242.67 194.48 1239.28 197.79 1235.17 197.79C1231.07 197.79 1227.76 194.4 1227.76 190.29L1227.68 187.88Z" fill="#21252B"/>
<g opacity="0.15">
<path opacity="0.15" d="M1205.46 421.68H1281.22C1281.67 421.68 1281.93 421.32 1281.93 420.97C1281.93 420.61 1281.57 420.26 1281.22 420.26H1205.46C1205.01 420.26 1204.75 420.62 1204.75 420.97C1204.74 421.32 1205.01 421.68 1205.46 421.68Z" fill="black"/>
</g>
<path opacity="0.15" d="M1234.64 234.46C1234.64 234.46 1231.43 345.47 1222.95 420.43H1212.06L1234.64 234.46Z" fill="black"/>
<path opacity="0.15" d="M1259.36 420.87L1304.25 426.94C1304.25 426.94 1305.41 430.15 1306.84 434.88L1319.33 440.5L1302.37 765.59L1287.82 765.68L1291.57 482.35C1253.11 468.62 1259.36 420.87 1259.36 420.87Z" fill="black"/>
<path opacity="0.15" d="M1194.93 470.4C1194.84 470.4 1194.75 470.31 1194.66 470.31L1201.17 420.43H1222.85L1218.92 456.57C1217.68 468.08 1205.55 475.13 1194.93 470.4Z" fill="black"/>
<g opacity="0.15">
<path opacity="0.15" d="M1217.41 248.38H1251.94L1254.53 250.61C1255.15 251.15 1256.05 251.23 1256.76 250.7L1260.15 248.38H1298.08V252.31H1217.41V248.38Z" fill="black"/>
<path opacity="0.15" d="M1298.08 265.24H1217.41V269.17H1298.08V265.24Z" fill="black"/>
<path opacity="0.15" d="M1298.08 282.2H1217.41V286.13H1298.08V282.2Z" fill="black"/>
<path opacity="0.15" d="M1298.08 299.07H1217.41V303H1298.08V299.07Z" fill="black"/>
<path opacity="0.15" d="M1298.08 316.02H1217.41V319.95H1298.08V316.02Z" fill="black"/>
<path opacity="0.15" d="M1298.08 332.89H1217.41V336.82H1298.08V332.89Z" fill="black"/>
<path opacity="0.15" d="M1298.08 349.84H1217.41V353.77H1298.08V349.84Z" fill="black"/>
<path opacity="0.15" d="M1298.09 366.71H1213.4V370.64H1298.09V366.71Z" fill="black"/>
<path opacity="0.15" d="M1298.08 383.66H1210.72V387.59H1298.08V383.66Z" fill="black"/>
<path opacity="0.15" d="M1298.09 400.53H1205.46V404.46H1298.09V400.53Z" fill="black"/>
</g>
<path d="M1321.15 470.12L1323.46 470.35L1322.88 336.81L1342.24 276.23C1344.72 269.35 1344.5 261.66 1341.12 255.17C1338.39 249.92 1335.88 246.09 1328.92 243.35L1278.8 233.9C1278.8 233.9 1279.66 249.01 1274.28 260.63C1271.43 266.77 1261.28 277.65 1260.82 278.7C1259.22 282.35 1258.03 407.03 1260.22 466.45L1315.22 470.23C1316.93 470.26 1318.52 470.23 1318.52 470.23C1318.79 470.05 1319.23 458.4 1319.23 458.4L1321.15 470.12Z" fill="#21252B"/>
<path d="M1183.06 274.88L1187.9 467.5C1187.92 467.72 1220.02 467.37 1220.02 467.37C1224.09 453.25 1241.99 273.31 1241.99 273.31C1241.99 273.31 1234.01 256.78 1234.01 251.61C1234.01 236.08 1237.13 233.38 1237.13 233.38L1202.86 244.71C1192.52 247.93 1182.43 260.78 1183.06 274.88Z" fill="#21252B"/>
<path d="M1203.97 325.98L1196.9 321.63C1194.29 320.04 1191.52 318.67 1188.58 317.66L1176.29 314.42C1175.99 314.31 1175.67 314.33 1175.44 314.61C1174.18 317.08 1175.34 319.09 1177.57 320.62C1179.01 321.53 1181.48 322.79 1182.98 323.33C1184.23 323.83 1183.41 324.66 1182.69 324.43L1157.94 320.28C1156.83 320.11 1155.71 320.83 1155.49 321.87C1155.25 323.04 1155.9 324.21 1157.06 324.45C1161.64 325.58 1172.18 328.24 1172.18 328.24L1154.42 327.28C1153.29 327.24 1152.27 328.1 1152.11 329.21C1151.96 330.64 1152.98 331.87 1154.34 332.07C1159.86 332.83 1172.65 334.82 1172.65 334.82L1157.1 334.32C1156.02 334.35 1155.2 335.17 1155.16 336.31C1155.12 337.44 1155.92 338.39 1157.04 338.55C1161.78 339.01 1171.39 340.7 1171.39 340.7L1161.57 340.37C1160.74 340.44 1160.11 341.23 1160.13 341.99C1160.2 342.82 1160.79 343.48 1161.59 343.66L1198.94 349.39L1212.27 353.73L1234.51 334.54L1203.97 325.98Z" fill="#F79898"/>
<path opacity="0.15" d="M1204.65 326.14L1196.98 348.97L1198.96 349.27L1200.41 349.74L1204.65 326.14Z" fill="black"/>
<path d="M1343.07 273.96L1311.64 371.74C1308.31 382.1 1296.94 387.45 1286.85 383.55L1197.59 349.23L1205.04 326.04L1276.44 344.21L1301.8 258.91" fill="#21252B"/>
<path opacity="0.4" d="M1287.26 371.22C1294.23 373.74 1302.12 370.47 1304.94 361.72L1333.21 269.39C1335.73 259.51 1335.24 251.11 1328.92 243.36L1330.57 244.36C1342.04 250.95 1346.76 264.84 1342.15 276.86L1311.67 371.67C1308.34 382.03 1296.94 387.46 1286.82 383.37L1197.59 349.25L1199.31 343.9L1287.26 371.22Z" fill="black"/>
<path opacity="0.4" d="M1228.59 332.12L1229.14 330.7L1265.73 339.93L1290.8 292.11C1291.08 291.54 1291.93 291.82 1291.79 292.52L1276.32 344.27L1265.06 341.4L1228.59 332.12Z" fill="black"/>
<g opacity="0.15">
<path opacity="0.15" d="M1191.55 312.91C1185.82 309.53 1187.6 303.61 1187.6 303.61L1188.54 303.89C1188.45 304.08 1186.94 309.15 1192.11 312.16L1191.55 312.91Z" fill="black"/>
</g>
<path d="M1237.14 233.39L1004.17 237.2V264.3L1127.24 271.96L1198.18 286.13" fill="#21252B"/>
<path d="M130.56 768.93C131.68 773.04 131.87 774.54 131.77 778.56L131.86 805.66C131.67 810.33 130.36 815 128.03 819.12L127.47 820.05C126.07 822.48 123.55 823.97 120.74 823.97H112.98C109.43 823.97 106.35 821.54 105.41 818.08C104.38 814.06 104.29 809.86 105.04 805.84L111.58 776.87C112.05 774.44 112.7 771.64 113.92 769.02L130.56 768.93Z" fill="black"/>
<path d="M235.6 705.29L237.19 755.85C237.19 760.62 238.4 765.66 240.27 768.19L262.88 807.53L257.65 814.73L237.18 804.54L218.96 771.65C219.05 766.04 218.4 762.68 217.46 755.11L208.4 699.32L235.6 705.29Z" fill="#F89999"/>
<path opacity="0.15" d="M237.09 773.23C235.03 770.15 232.32 762.95 231.76 759.59L229.33 741.55C229.14 740.15 228.12 739.12 226.71 738.93L214.28 737.25L214.09 734.54H236.52L237.17 756.03C237.26 759.49 237.92 765 240.25 768.37L262.86 807.71L259.68 813.04L237.09 773.23Z" fill="black"/>
<path d="M273.54 814.16L262.79 807.62C255.03 808.93 247.18 805.94 242.14 799.86L218.87 771.64C214.66 780.61 213.17 790.61 214.57 800.52L217.93 823.88H220.64L221.39 799.86C221.48 798.08 223.63 797.34 224.75 798.74L238.95 816.12C242.97 821.07 249.04 823.97 255.4 823.97H277.55C279.33 823.97 280.45 822.19 279.79 820.61C278.58 817.71 276.34 815.38 273.54 814.16Z" fill="black"/>
<path d="M131.59 756.69C130.47 766.41 129.91 776.22 130.09 786.03L130.28 797.71C130.09 802.85 125.89 806.96 120.75 806.96H119.16C113.37 806.96 108.88 801.82 109.72 796.12L112.43 782.29C113.83 775.28 114.3 768.09 113.93 760.89L111.31 713.7L135.7 714.07L131.59 756.69Z" fill="#F89999"/>
<path d="M208.21 377.57L226.33 437.29C228.76 464.67 231.2 493.72 231.95 521.2L237.65 734.45H213.07L167.37 435.69C167.09 433.63 165.31 432.23 163.26 432.23C161.11 432.23 159.34 433.91 159.15 436.06L135.41 734.44L111.21 734.25L100.56 513.52C98.5996 472.78 102.43 431.94 111.96 392.32L115.6 377.37L208.21 377.57Z" fill="#3F4249"/>
<path opacity="0.15" d="M133.64 734.45C133.64 734.45 130.74 764.73 130.46 768.75V768.84C130.09 774.54 129.99 780.24 130.09 785.94L130.28 797.62C130.09 802.57 126.17 806.59 121.22 806.78C125.71 803.32 125.33 797.72 125.43 793.51L126.18 742.21C126.18 740.53 125.06 739.13 123.38 738.75L112.54 736.79L112.45 734.36L133.64 734.45Z" fill="black"/>
<path d="M237.56 734.45H227.75L212.14 432.24C206.53 389.48 185.13 386.92 185.13 377.57L115.42 377.38C115.42 377.38 115.42 377.38 115.42 377.29L185.13 377.48L207.84 377.57H208.12L223.35 399.92C223.35 399.92 231.1 493.73 231.85 521.2L237.56 734.45Z" fill="#32353A"/>
<path d="M163.27 432.24C162.15 432.24 161.21 432.61 160.47 433.36C159.72 434.01 159.26 434.95 159.16 436.07L135.33 734.55L126.73 734.46L141.31 453.18C141.96 441.39 151.58 432.24 163.27 432.24Z" fill="#32353A"/>
<path d="M100.37 269.08C98.8101 255.64 103.71 250.83 103.71 250.83L153.64 297.58C153.64 297.58 162.01 343.61 164.28 343.63C164.28 343.63 142.11 366.15 134.16 355.72C120.77 338.17 101.93 282.53 100.37 269.08Z" fill="black"/>
<path opacity="0.15" d="M164.05 343.43C164.05 343.43 160.81 337.71 155.99 310C155.45 306.89 153.66 297.61 153.66 297.61C148.69 293.89 142.22 289.02 138.25 286.16C137.3 285.5 136.05 286.47 136.57 287.5L151.72 339.22C152.57 341.33 164.05 343.43 164.05 343.43Z" fill="black"/>
<path d="M114.56 243.77L145.25 237.52L195.25 238.08L217.16 243.55C228.63 247.19 229.21 257.13 229.03 269.17L227.09 284.44L231.85 300.86C234.65 311.49 231.01 317.65 223.64 326.23C221.31 328.94 220.1 330.05 219.16 335.18L223.37 399.92L110.38 399.23C112.48 368.84 103.23 321.76 101.9 314.7C96.6003 286.59 96.7503 268.5 96.7503 268.5C96.1803 257.02 103.64 246.29 114.56 243.77Z" fill="black"/>
<path d="M164.28 343.64L211.11 365.61L199.34 385.85C199.34 385.85 188.69 383.31 176.78 379.72C164.87 376.13 150.6 371.1 144.33 367.94C132.54 362.01 127.03 343.82 123.42 336.61" fill="black"/>
<path opacity="0.6" d="M208.61 364.32L203.92 361.4L190.95 383.82L195.6 385.33L208.61 364.32Z" fill="black"/>
<path d="M152.11 196.44L151.15 230.87C151.05 233.64 149.14 236.04 146.46 236.8L142.54 238.07L151.53 243.4C160.51 248.98 171.54 249.91 181.21 246.19C182.97 245.51 184.69 244.68 186.35 243.69L196.11 238.31L191.71 236.61C189.22 235.94 187.41 233.74 187.12 231.25L182.62 190.31L152.11 196.44Z" fill="#F89999"/>
<path d="M176.5 224.43L174.87 224.53C163.1 225.01 153.25 215.92 152.77 204.25L151.53 174.5C151.34 170.58 154.4 167.33 158.32 167.13L186.15 165.89C191.22 165.7 195.52 169.62 195.72 174.69L196.87 202.33C197.26 214 188.17 223.95 176.5 224.43Z" fill="#F89999"/>
<path d="M174.21 194.2C175.48 194.2 176.51 193.17 176.51 191.9C176.51 190.63 175.48 189.6 174.21 189.6C172.94 189.6 171.91 190.63 171.91 191.9C171.91 193.17 172.94 194.2 174.21 194.2Z" fill="#21252B"/>
<path d="M175.17 191.91C175.435 191.91 175.65 191.695 175.65 191.43C175.65 191.165 175.435 190.95 175.17 190.95C174.905 190.95 174.69 191.165 174.69 191.43C174.69 191.695 174.905 191.91 175.17 191.91Z" fill="white"/>
<path d="M192.1 194.2C193.37 194.2 194.4 193.17 194.4 191.9C194.4 190.63 193.37 189.6 192.1 189.6C190.83 189.6 189.8 190.63 189.8 191.9C189.8 193.17 190.83 194.2 192.1 194.2Z" fill="#21252B"/>
<path d="M193.05 191.81C193.315 191.81 193.53 191.595 193.53 191.33C193.53 191.065 193.315 190.85 193.05 190.85C192.785 190.85 192.57 191.065 192.57 191.33C192.57 191.595 192.785 191.81 193.05 191.81Z" fill="white"/>
<g opacity="0.15">
<path opacity="0.15" d="M183.77 205.3L180.71 205.59C180.33 205.59 180.04 205.3 179.94 205.02C179.94 204.64 180.23 204.35 180.51 204.25L183.57 203.96C184.34 203.86 184.91 203.19 184.81 202.43C184.71 201.66 184.04 201.09 183.28 201.09C182.9 201.09 182.61 200.8 182.51 200.52C182.51 200.14 182.8 199.85 183.08 199.75C184.61 199.65 185.95 200.8 186.05 202.24C186.45 203.86 185.3 205.2 183.77 205.3Z" fill="black"/>
</g>
<path opacity="0.15" d="M151.85 205.49H155.1L151.66 212.37L151.85 205.49Z" fill="black"/>
<path opacity="0.15" d="M186.15 221.62C182.9 223.53 179.17 224.39 175.25 224.59C174.39 224.59 173.53 224.59 172.67 224.59C172.38 224.59 172 224.59 171.71 224.49C171.61 224.49 171.61 224.49 171.52 224.49C171.04 224.39 170.56 224.39 169.99 224.3C169.8 224.3 169.61 224.2 169.42 224.2C166.07 223.63 163.59 222.48 161.96 221.52C161.67 221.33 161.29 221.42 161.1 221.71C160.91 222 161 222.38 161.29 222.57C163.39 223.81 166.65 225.25 171.05 225.73C173.35 227.45 177.27 229.56 182.24 229.56C183.87 229.56 185.49 229.37 187.02 228.99L186.15 221.62Z" fill="black"/>
<path d="M185.5 208.93C185.79 208.93 185.98 209.22 185.88 209.5C184.73 211.7 182.53 213.23 179.95 213.23C177.37 213.23 175.17 211.7 174.02 209.5C173.92 209.21 174.02 208.93 174.4 208.93H185.5Z" fill="white"/>
<path d="M142.55 238.08C142.55 254.46 173.31 267.52 173.31 267.52C173.31 267.52 196.11 254.7 196.11 238.32L191.04 236.39L142.55 238.08Z" fill="#F89999"/>
<path d="M192.67 185.11C189.8 185.4 187.31 186.93 185.78 189.13C183.2 188.27 181 188.84 180.04 189.23C178.32 186.36 175.07 184.54 171.43 184.83C166.36 185.21 162.53 189.71 162.92 194.78C163.3 199.85 167.8 203.68 172.87 203.29C177.94 202.91 181.77 198.41 181.38 193.34C181.28 192.29 181 191.33 180.61 190.37C181.47 190.08 183.29 189.7 185.2 190.27C184.43 191.7 184.15 193.43 184.24 195.15C184.62 200.22 189.12 204.05 194.19 203.66C199.26 203.28 203.09 198.78 202.7 193.71C202.31 188.64 197.83 184.83 192.67 185.11ZM172.97 202.04C168.57 202.42 164.74 199.07 164.36 194.67C163.98 190.27 167.33 186.44 171.73 186.06C176.13 185.68 179.96 189.03 180.34 193.43C180.62 197.83 177.27 201.76 172.97 202.04ZM194.1 202.43C189.7 202.81 185.87 199.46 185.49 195.06C185.11 190.66 188.46 186.83 192.86 186.45C197.26 186.07 201.09 189.42 201.47 193.82C201.85 198.22 198.5 202.04 194.1 202.43Z" fill="white"/>
<path d="M149.68 206.39C149.68 206.39 139.51 206.12 138.41 195.98C137.33 185.75 149.89 185.21 150.58 195.46L150.81 206.6L149.68 206.39Z" fill="#F89999"/>
<path opacity="0.15" d="M142.07 191.03C143.26 190.38 144.26 190.28 145.18 190.55C146.1 190.82 146.84 191.55 147.4 192.72C147.96 193.9 148.27 195.32 148.1 196.75L148 197.8C147.95 198.57 146.56 198.7 146.65 197.74C146.68 196.58 146.68 196.58 146.68 196.58C146.75 196.2 146.71 194.35 146.14 193.27C145.72 192.41 145.23 191.93 144.68 191.73C144.13 191.53 143.42 191.69 142.56 192.11C142.24 192.24 141.87 192.17 141.64 191.84C141.59 191.52 141.75 191.16 142.07 191.03Z" fill="black"/>
<path d="M149.243 202.911C149.449 201.821 148.733 200.769 147.642 200.563C146.551 200.356 145.5 201.073 145.293 202.163C145.086 203.254 145.803 204.306 146.894 204.512C147.984 204.719 149.036 204.002 149.243 202.911Z" fill="black"/>
<path opacity="0.15" d="M147.82 204.38C146.58 204.24 145.71 203.2 145.84 201.96C145.91 201.58 146.09 201.13 146.34 200.89C145.8 201.18 145.39 201.78 145.27 202.44C145.15 203.59 145.95 204.52 147.09 204.64C147.47 204.71 147.97 204.61 148.31 204.38C148.12 204.34 147.93 204.31 147.82 204.38Z" fill="black"/>
<path d="M200.08 173.9L190.87 160.82L180.34 167.74C187.15 167.74 194.38 168.99 195.73 177.92L196.11 184.1L200.08 173.9Z" fill="#21252B"/>
<path opacity="0.15" d="M221.55 372.11L164.08 336.65L145.69 287.93L170.2 333.66L221.03 364.04L221.55 372.11Z" fill="black"/>
<path opacity="0.15" d="M96.8398 272.96L129.29 350.28C133.29 360.15 141.42 367.77 151.52 371.13L223 394.3L223.36 399.91L145.02 377.65C138.03 375.41 132.47 370.07 129.94 363.18L96.8398 272.96Z" fill="black"/>
<path d="M264.25 157.15C266.906 157.15 269.06 154.996 269.06 152.34C269.06 149.683 266.906 147.53 264.25 147.53C261.593 147.53 259.44 149.683 259.44 152.34C259.44 154.996 261.593 157.15 264.25 157.15Z" fill="#263238"/>
<path d="M290.37 157.15C293.027 157.15 295.18 154.996 295.18 152.34C295.18 149.683 293.027 147.53 290.37 147.53C287.714 147.53 285.56 149.683 285.56 152.34C285.56 154.996 287.714 157.15 290.37 157.15Z" fill="#263238"/>
<path d="M316.49 157.15C319.146 157.15 321.3 154.996 321.3 152.34C321.3 149.683 319.146 147.53 316.49 147.53C313.833 147.53 311.68 149.683 311.68 152.34C311.68 154.996 313.833 157.15 316.49 157.15Z" fill="#263238"/>
<path d="M942.04 467.25L795.18 467.26V376.04C795.18 372.71 797.88 370.01 801.21 370.01L936 370C939.33 370 942.03 372.7 942.03 376.03L942.04 467.25Z" fill="white"/>
<path d="M885.28 418.63C885.28 427.84 877.82 435.3 868.61 435.3C859.4 435.3 851.94 427.84 851.94 418.63C851.94 409.42 859.4 401.96 868.61 401.96C877.81 401.96 885.28 409.42 885.28 418.63Z" fill="black"/>
<path opacity="0.7" d="M885.28 418.63C885.28 427.84 877.82 435.3 868.61 435.3C859.4 435.3 851.94 427.84 851.94 418.63C851.94 409.42 859.4 401.96 868.61 401.96C877.81 401.96 885.28 409.42 885.28 418.63Z" fill="white"/>
<path d="M861.57 425.68V411.58L879.19 418.63L861.57 425.68Z" fill="white"/>
<path d="M942.07 457.94H795.14V467.31H942.07V457.94Z" fill="#EBEBEB"/>
<path d="M932.4 461.24H806.12V464.02H932.4V461.24Z" fill="#B1B5BA"/>
<path d="M802.7 459.67H796.78V465.59H802.7V459.67Z" fill="#B1B5BA"/>
<path d="M799.29 460.72H798.17V464.53H799.29V460.72Z" fill="#61656D"/>
<path d="M801.31 460.72H800.19V464.53H801.31V460.72Z" fill="#61656D"/>
<path d="M940.68 459.66H934.76V465.58H940.68V459.66Z" fill="#B1B5BA"/>
<path d="M936.81 461.9H935.65V463.34H936.81V461.9Z" fill="#61656D"/>
<path d="M938.11 464.26L936.36 463.34V461.9L938.11 460.98V464.26Z" fill="#61656D"/>
<path d="M938.97 461.53C939.06 461.44 939.15 461.35 939.23 461.26C939.53 461.56 939.72 461.92 939.78 462.35C939.87 462.98 939.67 463.52 939.24 463.98C939.15 463.89 939.06 463.8 938.97 463.71C939.26 463.41 939.42 463.04 939.42 462.62C939.42 462.2 939.26 461.83 938.97 461.53Z" fill="#61656D"/>
<path d="M938.7 463.45C938.61 463.36 938.52 463.27 938.43 463.18C938.58 463.03 938.66 462.84 938.66 462.62C938.66 462.4 938.58 462.22 938.43 462.06C938.52 461.97 938.61 461.88 938.69 461.79C939.14 462.22 939.18 462.98 938.7 463.45Z" fill="#61656D"/>
<path d="M834.67 462.63C834.67 463.13 834.78 463.6 834.99 464.02H806.12V461.23H835.01C834.79 461.65 834.67 462.13 834.67 462.63Z" fill="#61656D"/>
<path d="M841.01 462.63C841.01 463.13 840.9 463.6 840.69 464.02C840.17 465.08 839.08 465.8 837.83 465.8C836.58 465.8 835.49 465.08 834.98 464.02C834.77 463.61 834.66 463.13 834.66 462.63C834.66 462.13 834.78 461.64 834.99 461.23C835.5 460.17 836.57 459.45 837.83 459.45C839.08 459.45 840.15 460.17 840.68 461.23C840.89 461.65 841.01 462.13 841.01 462.63Z" fill="#61656D"/>
<path d="M1008.54 391.96H963.14C960.24 391.96 957.89 389.61 957.89 386.71C957.89 383.81 960.24 381.46 963.14 381.46H1008.54C1011.44 381.46 1013.79 383.81 1013.79 386.71C1013.8 389.6 1011.45 391.96 1008.54 391.96Z" fill="white"/>
<path d="M1064.46 424.67H960.83C959.21 424.67 957.89 423.35 957.89 421.73C957.89 420.11 959.21 418.79 960.83 418.79H1064.46C1066.08 418.79 1067.4 420.11 1067.4 421.73C1067.4 423.35 1066.09 424.67 1064.46 424.67Z" fill="white"/>
<path d="M1064.46 441.03H960.83C959.21 441.03 957.89 439.71 957.89 438.09C957.89 436.47 959.21 435.15 960.83 435.15H1064.46C1066.08 435.15 1067.4 436.47 1067.4 438.09C1067.4 439.71 1066.09 441.03 1064.46 441.03Z" fill="white"/>
<path d="M1064.46 457.38H960.83C959.21 457.38 957.89 456.06 957.89 454.44C957.89 452.82 959.21 451.5 960.83 451.5H1064.46C1066.08 451.5 1067.4 452.82 1067.4 454.44C1067.4 456.07 1066.09 457.38 1064.46 457.38Z" fill="white"/>
<path d="M942.04 602.17L795.18 602.18V510.96C795.18 507.63 797.88 504.93 801.21 504.93L936.02 504.92C939.35 504.92 942.05 507.62 942.05 510.95L942.04 602.17Z" fill="white"/>
<path d="M885.28 553.55C885.28 562.76 877.82 570.22 868.61 570.22C859.4 570.22 851.94 562.76 851.94 553.55C851.94 544.34 859.4 536.88 868.61 536.88C877.81 536.87 885.28 544.34 885.28 553.55Z" fill="black"/>
<path opacity="0.7" d="M885.28 553.55C885.28 562.76 877.82 570.22 868.61 570.22C859.4 570.22 851.94 562.76 851.94 553.55C851.94 544.34 859.4 536.88 868.61 536.88C877.81 536.87 885.28 544.34 885.28 553.55Z" fill="white"/>
<path d="M861.57 560.6V546.5L879.19 553.55L861.57 560.6Z" fill="white"/>
<path d="M942.06 592.56H795.13V601.93H942.06V592.56Z" fill="#EBEBEB"/>
<path d="M932.39 595.86H806.11V598.64H932.39V595.86Z" fill="#B1B5BA"/>
<path d="M802.7 594.29H796.78V600.21H802.7V594.29Z" fill="#B1B5BA"/>
<path d="M799.29 595.34H798.17V599.15H799.29V595.34Z" fill="#61656D"/>
<path d="M801.31 595.34H800.19V599.15H801.31V595.34Z" fill="#61656D"/>
<path d="M940.68 594.28H934.76V600.2H940.68V594.28Z" fill="#B1B5BA"/>
<path d="M936.8 596.52H935.64V597.96H936.8V596.52Z" fill="#61656D"/>
<path d="M938.1 598.88L936.35 597.96V596.52L938.1 595.6V598.88Z" fill="#61656D"/>
<path d="M938.96 596.15C939.05 596.06 939.14 595.97 939.22 595.88C939.52 596.18 939.71 596.54 939.77 596.97C939.86 597.6 939.66 598.14 939.23 598.6C939.14 598.51 939.05 598.42 938.96 598.33C939.25 598.03 939.41 597.66 939.41 597.24C939.42 596.81 939.26 596.45 938.96 596.15Z" fill="#61656D"/>
<path d="M938.7 598.06C938.61 597.97 938.52 597.88 938.43 597.79C938.58 597.64 938.66 597.45 938.66 597.23C938.66 597.01 938.58 596.83 938.43 596.67C938.52 596.58 938.61 596.49 938.69 596.4C939.14 596.84 939.17 597.6 938.7 598.06Z" fill="#61656D"/>
<path d="M834.67 597.25C834.67 597.75 834.78 598.22 834.99 598.64H806.12V595.85H835.01C834.79 596.27 834.67 596.75 834.67 597.25Z" fill="#61656D"/>
<path d="M841.01 597.25C841.01 597.75 840.9 598.22 840.69 598.64C840.17 599.7 839.08 600.42 837.83 600.42C836.58 600.42 835.49 599.7 834.98 598.64C834.77 598.23 834.66 597.75 834.66 597.25C834.66 596.75 834.78 596.26 834.99 595.85C835.5 594.79 836.57 594.07 837.83 594.07C839.08 594.07 840.15 594.79 840.68 595.85C840.88 596.26 841.01 596.75 841.01 597.25Z" fill="#61656D"/>
<path d="M1008.54 526.87H963.14C960.24 526.87 957.89 524.52 957.89 521.62C957.89 518.72 960.24 516.37 963.14 516.37H1008.54C1011.44 516.37 1013.79 518.72 1013.79 521.62C1013.8 524.52 1011.45 526.87 1008.54 526.87Z" fill="white"/>
<path d="M1064.46 559.58H960.83C959.21 559.58 957.89 558.26 957.89 556.64C957.89 555.02 959.21 553.7 960.83 553.7H1064.46C1066.08 553.7 1067.4 555.02 1067.4 556.64C1067.4 558.27 1066.09 559.58 1064.46 559.58Z" fill="white"/>
<path d="M1064.46 575.94H960.83C959.21 575.94 957.89 574.62 957.89 573C957.89 571.38 959.21 570.06 960.83 570.06H1064.46C1066.08 570.06 1067.4 571.38 1067.4 573C1067.4 574.62 1066.09 575.94 1064.46 575.94Z" fill="white"/>
<path d="M1064.46 592.3H960.83C959.21 592.3 957.89 590.98 957.89 589.36C957.89 587.74 959.21 586.42 960.83 586.42H1064.46C1066.08 586.42 1067.4 587.74 1067.4 589.36C1067.4 590.98 1066.09 592.3 1064.46 592.3Z" fill="white"/>
<path d="M942.04 736.92L795.18 736.93V645.71C795.18 642.38 797.88 639.68 801.21 639.68L936.02 639.67C939.35 639.67 942.05 642.37 942.05 645.7L942.04 736.92Z" fill="white"/>
<path d="M885.28 688.3C885.28 697.51 877.82 704.97 868.61 704.97C859.4 704.97 851.94 697.51 851.94 688.3C851.94 679.09 859.4 671.63 868.61 671.63C877.81 671.63 885.28 679.09 885.28 688.3Z" fill="black"/>
<path opacity="0.7" d="M885.28 688.3C885.28 697.51 877.82 704.97 868.61 704.97C859.4 704.97 851.94 697.51 851.94 688.3C851.94 679.09 859.4 671.63 868.61 671.63C877.81 671.63 885.28 679.09 885.28 688.3Z" fill="white"/>
<path d="M861.57 695.35V681.26L879.19 688.3L861.57 695.35Z" fill="white"/>
<path d="M942.1 727.56H795.17V736.93H942.1V727.56Z" fill="#EBEBEB"/>
<path d="M932.43 730.86H806.15V733.64H932.43V730.86Z" fill="#B1B5BA"/>
<path d="M802.74 729.29H796.82V735.21H802.74V729.29Z" fill="#B1B5BA"/>
<path d="M799.33 730.34H798.21V734.15H799.33V730.34Z" fill="#61656D"/>
<path d="M801.35 730.34H800.23V734.15H801.35V730.34Z" fill="#61656D"/>
<path d="M940.72 729.28H934.8V735.2H940.72V729.28Z" fill="#B1B5BA"/>
<path d="M936.84 731.52H935.68V732.96H936.84V731.52Z" fill="#61656D"/>
<path d="M938.14 733.88L936.39 732.96V731.52L938.14 730.6V733.88Z" fill="#61656D"/>
<path d="M939 731.15C939.09 731.06 939.18 730.97 939.26 730.88C939.56 731.18 939.75 731.54 939.81 731.97C939.9 732.6 939.7 733.14 939.27 733.6C939.18 733.51 939.09 733.42 939 733.33C939.29 733.03 939.45 732.66 939.45 732.24C939.45 731.81 939.3 731.45 939 731.15Z" fill="#61656D"/>
<path d="M938.74 733.07C938.65 732.98 938.56 732.89 938.47 732.8C938.62 732.65 938.7 732.46 938.7 732.24C938.7 732.02 938.62 731.84 938.47 731.68C938.56 731.59 938.65 731.5 938.73 731.41C939.18 731.84 939.21 732.6 938.74 733.07Z" fill="#61656D"/>
<path d="M834.71 732.25C834.71 732.75 834.82 733.22 835.03 733.64H806.16V730.85H835.05C834.83 731.27 834.71 731.75 834.71 732.25Z" fill="#61656D"/>
<path d="M841.04 732.25C841.04 732.75 840.93 733.22 840.72 733.64C840.2 734.7 839.11 735.42 837.86 735.42C836.61 735.42 835.52 734.7 835.01 733.64C834.8 733.23 834.69 732.75 834.69 732.25C834.69 731.75 834.81 731.26 835.02 730.85C835.53 729.79 836.6 729.07 837.85 729.07C839.1 729.07 840.17 729.79 840.7 730.85C840.92 731.27 841.04 731.75 841.04 732.25Z" fill="#61656D"/>
<path d="M1008.54 661.63H963.14C960.24 661.63 957.89 659.28 957.89 656.38C957.89 653.48 960.24 651.13 963.14 651.13H1008.54C1011.44 651.13 1013.79 653.48 1013.79 656.38C1013.8 659.28 1011.45 661.63 1008.54 661.63Z" fill="white"/>
<path d="M1064.46 694.34H960.83C959.21 694.34 957.89 693.02 957.89 691.4C957.89 689.78 959.21 688.46 960.83 688.46H1064.46C1066.08 688.46 1067.4 689.78 1067.4 691.4C1067.4 693.03 1066.09 694.34 1064.46 694.34Z" fill="white"/>
<path d="M1064.46 710.7H960.83C959.21 710.7 957.89 709.38 957.89 707.76C957.89 706.14 959.21 704.82 960.83 704.82H1064.46C1066.08 704.82 1067.4 706.14 1067.4 707.76C1067.4 709.38 1066.09 710.7 1064.46 710.7Z" fill="white"/>
<path d="M1064.46 727.06H960.83C959.21 727.06 957.89 725.74 957.89 724.12C957.89 722.5 959.21 721.18 960.83 721.18H1064.46C1066.08 721.18 1067.4 722.5 1067.4 724.12C1067.4 725.74 1066.09 727.06 1064.46 727.06Z" fill="white"/>
<path d="M318.95 298.23H1030.53C1039.96 298.23 1047.61 290.58 1047.61 281.15C1047.61 271.72 1039.96 264.07 1030.53 264.07H318.95C309.52 264.07 301.87 271.72 301.87 281.15C301.87 290.59 309.52 298.23 318.95 298.23Z" fill="#B1B5BA"/>
<path d="M353.28 286.9H1074.39C1084.18 286.9 1092.12 278.96 1092.12 269.17C1092.12 259.38 1084.18 251.44 1074.39 251.44H353.28C343.49 251.44 335.55 259.38 335.55 269.17C335.55 278.96 343.49 286.9 353.28 286.9Z" fill="black"/>
<path opacity="0.7" d="M353.28 286.9H1074.39C1084.18 286.9 1092.12 278.96 1092.12 269.17C1092.12 259.38 1084.18 251.44 1074.39 251.44H353.28C343.49 251.44 335.55 259.38 335.55 269.17C335.55 278.96 343.49 286.9 353.28 286.9Z" fill="white"/>
<path d="M355.78 274.3C359.055 274.3 361.71 271.645 361.71 268.37C361.71 265.095 359.055 262.44 355.78 262.44C352.505 262.44 349.85 265.095 349.85 268.37C349.85 271.645 352.505 274.3 355.78 274.3Z" fill="black"/>
<path d="M702.6 719.56L244.58 693.1L264.82 342.94C265.34 334 273 327.17 281.94 327.69L707.59 352.29C716.53 352.81 723.36 360.47 722.84 369.41L702.6 719.56Z" fill="black"/>
<path opacity="0.7" d="M264.81 343.07L244.58 693.1L702.6 719.57L722.83 369.54C723.35 360.52 716.46 352.79 707.45 352.27L282.08 327.69C273.06 327.17 265.33 334.06 264.81 343.07Z" fill="white"/>
<path d="M527.68 515.55C526.36 538.37 506.79 555.81 483.96 554.49C461.14 553.17 443.7 533.6 445.02 510.77C446.34 487.95 465.91 470.51 488.74 471.83C511.56 473.15 529 492.72 527.68 515.55Z" fill="black"/>
<path d="M467.91 529.62L469.93 494.68L512.6 514.68L467.91 529.62Z" fill="white"/>
<path d="M246.392 660.118L244.488 693.172L702.468 719.551L704.372 686.497L246.392 660.118Z" fill="white"/>
<path d="M284.491 673.999L283.926 683.802L669.04 705.984L669.605 696.181L284.491 673.999Z" fill="black"/>
<path opacity="0.7" d="M284.491 673.999L283.926 683.802L669.04 705.984L669.605 696.181L284.491 673.999Z" fill="white"/>
<path opacity="0.7" d="M251.884 666.5L250.676 687.395L271.57 688.602L272.778 667.708L251.884 666.5Z" fill="white"/>
<path d="M257.83 684.09C256.74 684.03 255.9 683.09 255.97 682L256.52 672.51C256.58 671.42 257.52 670.58 258.61 670.65C259.7 670.71 260.54 671.65 260.47 672.74L259.92 682.23C259.86 683.32 258.92 684.15 257.83 684.09Z" fill="black"/>
<path d="M264.97 684.5C263.88 684.44 263.04 683.5 263.11 682.41L263.66 672.92C263.72 671.83 264.66 670.99 265.75 671.06C266.84 671.12 267.68 672.06 267.61 673.15L267.06 682.64C267 683.73 266.06 684.56 264.97 684.5Z" fill="black"/>
<g opacity="0.3">
<path opacity="0.3" d="M257.83 684.09C256.74 684.03 255.9 683.09 255.97 682L256.52 672.51C256.58 671.42 257.52 670.58 258.61 670.65C259.7 670.71 260.54 671.65 260.47 672.74L259.92 682.23C259.86 683.32 258.92 684.15 257.83 684.09Z" fill="black"/>
<path opacity="0.3" d="M264.97 684.5C263.88 684.44 263.04 683.5 263.11 682.41L263.66 672.92C263.72 671.83 264.66 670.99 265.75 671.06C266.84 671.12 267.68 672.06 267.61 673.15L267.06 682.64C267 683.73 266.06 684.56 264.97 684.5Z" fill="black"/>
</g>
<path d="M678.288 691.107L677.081 712.001L697.975 713.209L699.183 692.314L678.288 691.107Z" fill="black"/>
<path opacity="0.7" d="M678.288 691.107L677.081 712.001L697.975 713.209L699.183 692.314L678.288 691.107Z" fill="white"/>
<path d="M680.96 699.204L680.667 704.275L684.75 704.511L685.043 699.44L680.96 699.204Z" fill="black"/>
<path d="M689.24 708.02L683.25 704.4L683.55 699.34L689.91 696.44L689.24 708.02Z" fill="black"/>
<path d="M692.84 698.55C693.17 698.25 693.5 697.96 693.83 697.66C694.82 698.79 695.42 700.1 695.53 701.6C695.7 703.85 694.91 705.72 693.29 707.25C692.99 706.91 692.7 706.58 692.4 706.25C693.5 705.24 694.13 703.99 694.22 702.49C694.3 700.99 693.81 699.68 692.84 698.55Z" fill="black"/>
<path d="M691.5 705.26C691.21 704.93 690.92 704.6 690.62 704.27C691.18 703.76 691.51 703.12 691.55 702.34C691.59 701.57 691.34 700.9 690.84 700.32C691.17 700.02 691.5 699.73 691.83 699.44C693.31 701.02 693.28 703.71 691.5 705.26Z" fill="black"/>
<g opacity="0.3">
<g opacity="0.3">
<path opacity="0.3" d="M680.96 699.204L680.667 704.275L684.75 704.511L685.043 699.44L680.96 699.204Z" fill="black"/>
<path opacity="0.3" d="M689.24 708.02L683.25 704.4L683.55 699.34L689.91 696.44L689.24 708.02Z" fill="black"/>
</g>
<g opacity="0.3">
<g opacity="0.3">
<path opacity="0.3" d="M692.84 698.55C693.17 698.25 693.5 697.96 693.83 697.66C694.82 698.79 695.42 700.1 695.53 701.6C695.7 703.85 694.91 705.72 693.29 707.25C692.99 706.91 692.7 706.58 692.4 706.25C693.5 705.24 694.13 703.99 694.22 702.49C694.3 700.99 693.81 699.68 692.84 698.55Z" fill="black"/>
<path opacity="0.3" d="M691.5 705.26C691.21 704.93 690.92 704.6 690.62 704.27C691.18 703.76 691.51 703.12 691.55 702.34C691.59 701.57 691.34 700.9 690.84 700.32C691.17 700.02 691.5 699.73 691.83 699.44C693.31 701.02 693.28 703.71 691.5 705.26Z" fill="black"/>
</g>
</g>
</g>
<path d="M385.06 684.71C384.96 686.47 385.25 688.17 385.89 689.67L283.98 683.78L284.55 673.95L386.5 679.84C385.7 681.26 385.17 682.95 385.06 684.71Z" fill="black"/>
<path d="M407.44 686C407.34 687.76 406.86 689.41 406.04 690.83C403.98 694.46 400.01 696.77 395.59 696.52C391.17 696.26 387.49 693.51 385.9 689.67C385.25 688.17 384.96 686.47 385.07 684.71C385.17 682.95 385.7 681.26 386.51 679.84C388.53 676.21 392.46 673.89 396.88 674.15C401.3 674.41 404.94 677.16 406.57 681C407.21 682.5 407.54 684.24 407.44 686Z" fill="black"/>
<g opacity="0.3">
<path opacity="0.3" d="M385.06 684.71C384.96 686.47 385.25 688.17 385.89 689.67L283.98 683.78L284.55 673.95L386.5 679.84C385.7 681.26 385.17 682.95 385.06 684.71Z" fill="black"/>
<path opacity="0.3" d="M407.441 686C407.341 687.76 406.861 689.41 406.041 690.83C403.981 694.46 400.011 696.77 395.591 696.52C391.171 696.26 387.491 693.51 385.901 689.67C385.251 688.17 384.961 686.47 385.071 684.71C385.171 682.95 385.701 681.26 386.511 679.84C388.531 676.21 392.461 673.89 396.881 674.15C401.301 674.41 404.941 677.16 406.571 681C407.211 682.5 407.541 684.24 407.441 686Z" fill="black"/>
</g>
<path d="M324.55 327.45C324.55 327.45 338.52 331.97 339.4 332.55C340.28 333.13 348.81 345.31 348.81 345.31C348.81 345.31 348.81 345.31 346.16 346C343.51 346.69 334.92 337.37 334.7 336.85C334.48 336.33 324.32 334.3 323.05 334.07C321.77 333.84 314.58 335.61 313.64 337.91C312.69 340.22 319.89 344.43 321.97 345.29C324.55 346.35 323.16 350.23 323.16 350.23C320.45 350.42 312.99 347.71 309.85 345.81C306.71 343.91 299.31 339.35 296.72 339.08C294.13 338.8 268.98 340.99 268.98 340.99L209.15 343.65C199.21 344.09 192.07 334.21 195.62 324.91L215.16 273.64L228.82 260.2L238.26 319.89C238.26 319.89 322.63 322.41 323.94 322.57C325.25 322.73 352.35 330.95 352.78 331.66C353.21 332.37 348.92 336.01 340.47 333.77L339.4 332.53L324.55 327.45Z" fill="#F89999"/>
<path d="M333.61 325.37L347.04 324.26C347.04 324.26 346.98 327.32 344.08 328.62L333.61 325.37Z" fill="#F89999"/>
<path d="M327.1 323.44C327.1 323.44 337.97 321.76 338.6 321.81C339.45 321.89 341.01 323.76 339.03 324.92L333.6 325.37L327.1 323.44Z" fill="#F89999"/>
<path opacity="0.15" d="M340.44 333.77C339.74 332.99 338.92 332.4 337.93 332.03L327.57 328.08L338.39 331.24C339.45 331.55 340.35 332.27 340.88 333.24L341.31 334.02L340.44 333.77Z" fill="black"/>
<path opacity="0.15" d="M329.02 324.64L346.52 330.72C346.52 330.72 347.14 330.4 347.39 330.09L329.02 324.64Z" fill="black"/>
<path opacity="0.15" d="M341.89 326.07L334.82 326.36L335.43 326.54L341.74 326.67C341.74 326.68 341.8 326.61 341.89 326.07Z" fill="black"/>
<path d="M280.03 321.13L240.49 319.19L228.82 260.2L215.16 273.64L195.62 324.91C192.08 334.21 199.21 344.09 209.15 343.65C209.15 343.65 268.72 341.3 275.74 340.43L280.03 321.13Z" fill="black"/>
<path opacity="0.6" d="M280.03 321.13L275.74 340.43L272.1 340.75L276.06 320.93L280.03 321.13Z" fill="black"/>
<path d="M976.54 241.09L962.15 244.94L952.34 250.94L958.95 250.93L966.74 250.94H987.41C987.92 251.26 988.32 251.65 988.61 252.09C992.22 257.78 978.61 258.24 978.22 261.27C978.22 261.3 978.21 261.33 978.21 261.36C978.02 263.37 979.77 265.03 981.78 264.87C986.22 264.52 997.81 264.59 1006.81 251.45L1005.82 237.16C1005.82 237.16 976.8 237.36 975.05 237.71C974.11 237.9 961.77 242.31 961.77 242.31C961.77 242.31 949.8 250.8 949.57 250.93L962.98 250.92" fill="#F79898"/>
<path opacity="0.2" d="M954.88 250.74L964.45 244.94L978.58 242.44" stroke="black" stroke-miterlimit="10" stroke-linecap="round" stroke-linejoin="round"/>
<path opacity="0.15" d="M228.96 261.39C228.96 261.39 230.09 264.72 227.07 284.44L231.84 300.74C233.95 307.96 232.33 315.76 227.52 321.54L221.54 328.73C221.54 328.73 219.44 330.95 219.14 335.18C218.84 339.41 219.66 343.23 219.66 343.23L229.06 342.77L272.09 340.75L273.16 335.42L236.04 335.75C234.77 331.6 240.48 319.19 240.48 319.19L228.96 261.39Z" fill="black"/>
<path opacity="0.15" d="M318.98 349.4C313.41 346.96 301.97 337.07 299.02 336.44C296.07 335.81 276.85 335.43 276.85 335.43L275.74 340.43C275.74 340.43 295.38 338.73 296.72 339.08C298.06 339.43 302.91 341.45 308.64 345.08C314.37 348.71 318.98 349.4 318.98 349.4Z" fill="black"/>
<path d="M195.6 385.33L235.76 398.5C235.76 398.5 255.51 410.64 258.24 411.29C260.96 411.94 284.5 417.09 285.18 416.79C285.86 416.49 285.06 412.84 282.49 411.97C280.75 411.38 275.73 410.07 275.73 410.07L274.31 410.38L261.77 408.28C261.77 408.28 272.47 410.49 274.44 410.37C276.41 410.25 288.27 405.09 288.27 405.09C288.27 405.09 287.78 402.99 285.42 402.5C283.06 402.01 275.17 404.53 270.5 404.53C265.83 404.53 258.33 398.5 258.02 395.55C257.71 392.6 265.51 392.81 265.51 392.81C271.87 392.98 275.92 390.31 268.84 388.07C261.76 385.83 249.74 387.42 246.95 386.66C244.15 385.9 241.8 384.3 241.8 384.3L208.6 364.31L195.74 385.15" fill="#F89999"/>
<path d="M266.77 413.18L279.8 420.56C280.42 417.17 279.35 415.82 279.35 415.82L266.77 413.18Z" fill="#F89999"/>
<path d="M273.16 416.8C272.52 420.45 268.46 418.14 267.79 417.2C267.12 416.26 261.22 411.97 261.22 411.97H270.43L273.16 416.8Z" fill="#F89999"/>
<path d="M174.22 233.27C179.798 233.27 184.32 228.748 184.32 223.17C184.32 217.592 179.798 213.07 174.22 213.07C168.642 213.07 164.12 217.592 164.12 223.17C164.12 228.748 168.642 233.27 174.22 233.27Z" fill="#21252B"/>
<path d="M222.4 213.409C224.76 211.389 226.46 208.549 227 205.199C228.11 198.289 223.6 191.469 216.8 189.789C209.23 187.919 201.7 192.719 200.14 200.289C199.17 204.969 200.73 209.579 203.88 212.719C202.33 213.719 201.05 215.109 200.18 216.789C197.87 213.669 194.26 211.499 189.91 211.259C183.82 210.919 178.14 214.819 176.25 220.619C173.68 228.509 178.56 236.659 186.46 238.289C191.47 239.319 196.39 237.469 199.52 233.869C201.2 231.929 203.9 231.079 206.34 231.869C207.36 232.199 208.46 232.389 209.62 232.409C214.01 232.469 218.08 229.689 219.64 225.579C220.4 223.579 220.53 221.539 220.16 219.649C219.7 217.309 220.59 214.959 222.4 213.409Z" fill="#21252B"/>
<path d="M218.5 190.34C213.03 187.39 208.24 184.46 208.66 178.84C208.77 177.37 209.2 174.87 209.2 174.87L201.55 168.63L185.35 166.61L182.83 210.99L201.69 220.42L218.5 190.34Z" fill="#21252B"/>
<path d="M152.5 196.159L151.26 231.039C151.14 233.849 149.18 236.259 146.47 237.009L142.49 238.109L151.56 243.729C160.61 249.449 171.78 250.479 181.61 246.789C183.4 246.119 185.15 245.279 186.84 244.289L196.77 238.449L192.32 237.159C189.81 236.459 187.98 234.219 187.71 231.699L183.48 190.189L152.5 196.159Z" fill="#F59696"/>
<path d="M176.99 224.7L175.34 224.78C163.42 225.17 153.51 215.89 153.11 204.06L152.08 173.91C151.92 169.94 155.04 166.66 159.02 166.5L187.23 165.46C192.37 165.31 196.7 169.31 196.85 174.45L197.8 202.47C198.1 214.3 188.82 224.3 176.99 224.7Z" fill="#F59696"/>
<path d="M174.93 194.05C176.217 194.05 177.26 193.006 177.26 191.72C177.26 190.433 176.217 189.39 174.93 189.39C173.643 189.39 172.6 190.433 172.6 191.72C172.6 193.006 173.643 194.05 174.93 194.05Z" fill="#21252B"/>
<path d="M175.89 191.73C176.155 191.73 176.37 191.515 176.37 191.25C176.37 190.984 176.155 190.77 175.89 190.77C175.625 190.77 175.41 190.984 175.41 191.25C175.41 191.515 175.625 191.73 175.89 191.73Z" fill="white"/>
<path d="M193.05 194.2C194.337 194.2 195.38 193.156 195.38 191.87C195.38 190.583 194.337 189.54 193.05 189.54C191.763 189.54 190.72 190.583 190.72 191.87C190.72 193.156 191.763 194.2 193.05 194.2Z" fill="#21252B"/>
<path d="M194.02 191.779C194.285 191.779 194.5 191.564 194.5 191.299C194.5 191.034 194.285 190.819 194.02 190.819C193.755 190.819 193.54 191.034 193.54 191.299C193.54 191.564 193.755 191.779 194.02 191.779Z" fill="white"/>
<g opacity="0.15">
<path opacity="0.15" d="M184.51 205.37L181.41 205.64C181.02 205.64 180.73 205.34 180.64 205.05C180.64 204.66 180.94 204.37 181.23 204.28L184.33 204.01C185.11 203.92 185.69 203.25 185.6 202.47C185.51 201.69 184.84 201.11 184.06 201.1C183.67 201.1 183.38 200.8 183.29 200.51C183.29 200.12 183.59 199.83 183.88 199.74C185.43 199.66 186.78 200.83 186.86 202.28C187.23 203.94 186.06 205.29 184.51 205.37Z" fill="black"/>
</g>
<path opacity="0.15" d="M186.78 221.929C183.47 223.839 179.68 224.689 175.71 224.849C174.84 224.839 173.97 224.839 173.09 224.829C172.8 224.829 172.41 224.819 172.12 224.729C172.02 224.729 172.02 224.729 171.93 224.729C171.45 224.629 170.96 224.629 170.38 224.519C170.19 224.519 169.99 224.419 169.8 224.419C166.41 223.809 163.9 222.629 162.26 221.649C161.97 221.449 161.58 221.549 161.39 221.839C161.19 222.129 161.29 222.519 161.58 222.709C163.7 223.989 166.99 225.469 171.44 225.979C173.75 227.739 177.71 229.909 182.75 229.939C184.4 229.949 186.05 229.769 187.6 229.399L186.78 221.929Z" fill="black"/>
<path d="M186.22 209.07C186.51 209.07 186.7 209.36 186.6 209.65C185.42 211.87 183.18 213.4 180.56 213.38C177.94 213.36 175.73 211.79 174.58 209.55C174.49 209.26 174.58 208.97 174.97 208.97L186.22 209.07Z" fill="white"/>
<path d="M142.48 238.11C142.35 254.7 173 268.53 173 268.53C173 268.53 196.63 255.07 196.76 238.47L191.63 236.93L142.48 238.11Z" fill="#F59696"/>
<path d="M193.68 184.99C190.77 185.26 188.24 186.79 186.67 189.01C184.06 188.12 181.83 188.68 180.85 189.06C179.13 186.14 175.85 184.27 172.16 184.53C167.02 184.88 163.11 189.4 163.46 194.54C163.81 199.68 168.33 203.59 173.47 203.24C178.61 202.89 182.52 198.37 182.17 193.23C182.08 192.16 181.8 191.19 181.42 190.22C182.29 189.94 184.14 189.56 186.07 190.16C185.28 191.61 184.98 193.35 185.06 195.09C185.41 200.23 189.93 204.14 195.07 203.79C200.21 203.44 204.12 198.92 203.77 193.78C203.44 188.66 198.91 184.74 193.68 184.99ZM173.58 201.99C169.12 202.34 165.27 198.92 164.92 194.46C164.57 190 167.99 186.15 172.45 185.8C176.91 185.45 180.76 188.87 181.11 193.33C181.37 197.79 177.95 201.74 173.58 201.99ZM195 202.55C190.54 202.9 186.69 199.48 186.34 195.02C185.99 190.56 189.41 186.71 193.87 186.36C198.33 186.01 202.18 189.43 202.53 193.89C202.88 198.34 199.46 202.19 195 202.55Z" fill="white"/>
<path d="M152.53 255.43L190.4 253.81C190.4 253.81 188.29 256.91 182.96 261.47C178.53 265.26 172.99 268.53 172.99 268.53C172.99 268.53 167.59 266.08 161.65 262.24C155.89 258.52 152.53 255.43 152.53 255.43Z" fill="#21252B"/>
<path d="M209.17 175C210.46 166.56 206.9 159.84 198.94 159.42C196.88 159.31 194.74 160 193.27 160.12C189.93 160.37 186.72 158.92 184.61 156.32C181.04 151.91 175.47 146.73 168.65 146.91C160.68 147.12 155.29 154.75 155.62 159.96C137.33 157.96 131.41 170.6 130.52 175.55C130.3 176.75 129.44 177.7 128.26 178C124.18 179.05 121.06 182.62 120.78 187.05C120.58 190.27 121.94 193.22 124.2 195.19C126.26 197.2 128.24 199.42 128.04 202.53C127.96 203.78 127.71 204.72 126.96 206.25C126.21 207.54 124.91 209.97 124.69 211.55C121.55 234.16 147.72 234.84 150.98 234.9C162.32 235.12 165.68 227.02 165.13 222.61C164.69 219.05 161.53 216.3 158.65 214.27C156.71 212.9 155.22 210.93 154.67 208.62C154.45 207.7 154.36 206.74 154.43 205.75C154.5 204.55 154.79 203.41 155.25 202.37C155.54 201.72 154.46 201 154.87 200.43L154.12 200.38C155.5 198.69 152.64 197.56 152.79 195.22C153 191.77 153.17 188.86 153.26 187.41C153.26 187.41 162.91 186.23 164.57 171.1C165.83 171.55 167.16 171.85 168.56 171.93C173.46 172.23 177.94 170.05 180.78 166.46V166.47L180.91 166.44C181.36 173.59 187.07 179.46 194.41 179.92C199.3 180.22 202.75 177.93 204.8 174.28L209.17 175Z" fill="#21252B"/>
<path d="M154.88 205.94C154.88 205.94 144.58 206.39 142.75 196.22C140.93 185.96 153.59 184.51 155.01 194.83L156.03 206.07L154.88 205.94Z" fill="#F59696"/>
<path opacity="0.15" d="M146.1 190.96C147.26 190.22 148.26 190.04 149.21 190.25C150.16 190.46 150.96 191.14 151.61 192.29C152.26 193.44 152.68 194.85 152.6 196.31L152.57 197.38C152.58 198.16 151.18 198.39 151.2 197.41C151.14 196.23 151.14 196.23 151.14 196.23C151.19 195.85 151.01 193.97 150.36 192.92C149.87 192.08 149.34 191.63 148.77 191.47C148.2 191.31 147.5 191.52 146.66 192C146.35 192.16 145.96 192.11 145.71 191.79C145.64 191.49 145.78 191.12 146.1 190.96Z" fill="black"/>
<path d="M152.2 204.27C153.327 204.27 154.24 203.357 154.24 202.23C154.24 201.103 153.327 200.19 152.2 200.19C151.073 200.19 150.16 201.103 150.16 202.23C150.16 203.357 151.073 204.27 152.2 204.27Z" fill="black"/>
<path opacity="0.15" d="M152.86 204.05C151.6 204 150.64 203.01 150.69 201.75C150.74 201.36 150.89 200.9 151.11 200.63C150.58 200.96 150.22 201.6 150.14 202.27C150.1 203.44 150.97 204.32 152.14 204.36C152.53 204.41 153.03 204.27 153.35 204.01C153.16 203.98 152.96 203.96 152.86 204.05Z" fill="black"/>
</svg>
