<svg width="1411" height="826" viewBox="0 0 1411 826" fill="none" xmlns="http://www.w3.org/2000/svg">
<path d="M851.85 651.56C851.85 617.27 825.95 589.01 792.54 585.33V584.89H785.18C748.39 584.89 718.51 614.77 718.51 651.56C718.51 688.35 748.39 718.23 785.18 718.23H792.54V717.79C825.95 714.11 851.85 685.85 851.85 651.56Z" fill="#B1B5BA"/>
<path d="M792.539 718.23C829.36 718.23 859.209 688.381 859.209 651.56C859.209 614.739 829.36 584.89 792.539 584.89C755.718 584.89 725.869 614.739 725.869 651.56C725.869 688.381 755.718 718.23 792.539 718.23Z" fill="#858990"/>
<path d="M792.54 710.87C825.296 710.87 851.85 684.316 851.85 651.56C851.85 618.804 825.296 592.25 792.54 592.25C759.784 592.25 733.23 618.804 733.23 651.56C733.23 684.316 759.784 710.87 792.54 710.87Z" fill="white"/>
<path d="M792.54 710.87C825.296 710.87 851.85 684.316 851.85 651.56C851.85 618.804 825.296 592.25 792.54 592.25C759.784 592.25 733.23 618.804 733.23 651.56C733.23 684.316 759.784 710.87 792.54 710.87Z" fill="#858990"/>
<path opacity="0.9" d="M792.54 710.87C825.296 710.87 851.85 684.316 851.85 651.56C851.85 618.804 825.296 592.25 792.54 592.25C759.784 592.25 733.23 618.804 733.23 651.56C733.23 684.316 759.784 710.87 792.54 710.87Z" fill="white"/>
<path d="M792.541 592.25C791.511 592.25 790.481 592.25 789.301 592.4C820.501 594.02 845.371 619.92 845.371 651.56C845.371 683.2 820.501 709.1 789.301 710.72C790.331 710.72 791.361 710.87 792.541 710.87C825.361 710.87 851.851 684.38 851.851 651.56C851.851 618.74 825.361 592.25 792.541 592.25Z" fill="#B1B5BA"/>
<path d="M793.129 656.12L773.409 616.97C772.669 615.5 773.259 613.59 774.729 612.85C776.199 612.11 778.109 612.7 778.849 614.17L795.769 647.87L818.289 636.83C819.759 636.09 821.669 636.68 822.409 638.3C823.149 639.77 822.559 641.68 820.939 642.42L793.129 656.12Z" fill="#0F4189"/>
<path opacity="0.5" d="M843.319 682.02C848.769 673.04 851.859 662.59 851.859 651.41C851.859 618.59 825.369 592.1 792.549 592.1C790.929 592.1 789.309 592.25 787.689 592.25L843.319 682.02Z" fill="white"/>
<path opacity="0.5" d="M778.71 593.87C775.77 594.61 772.97 595.49 770.32 596.52L831.69 696C834.04 693.94 836.25 691.58 838.31 689.08L778.71 593.87Z" fill="white"/>
<path d="M1327.67 823.19L1409.83 393.55C1411.74 383.58 1410.9 373.29 1407.41 363.76L1323.5 134.82C1316.13 114.72 1297.94 100.57 1276.64 98.39L329.88 1.15995C316.18 -0.250047 302.43 3.44995 291.28 11.5299L23.7401 205.55C6.66014 217.94 -2.00986 238.88 1.32014 259.72L91.4602 824.07L1327.67 823.19Z" fill="#DDEDFF"/>
<path d="M253.501 136.36H1113.89C1119.2 136.36 1123.5 140.66 1123.5 145.97V814.45C1123.5 819.76 1119.2 824.06 1113.89 824.06H253.501C248.191 824.06 243.891 819.76 243.891 814.45V145.96C243.891 140.66 248.201 136.36 253.501 136.36Z" fill="#B1B5BA"/>
<path d="M1113.98 136.36H253.42C248.16 136.36 243.9 140.62 243.9 145.88V168.33H1123.51V145.88C1123.5 140.62 1119.24 136.36 1113.98 136.36Z" fill="#263238"/>
<path d="M236.42 168.33H1116.03V814.42C1116.03 819.7 1111.75 823.99 1106.46 823.99H245.98C240.7 823.99 236.41 819.71 236.41 814.42V168.33H236.42Z" fill="#0F4189"/>
<path d="M236.42 168.33H1116.03V814.46C1116.03 819.72 1111.77 823.98 1106.51 823.98H245.94C240.68 823.98 236.42 819.72 236.42 814.46V168.33Z" fill="#D9DCDE"/>
<path d="M1106.46 136.36H245.98C240.7 136.36 236.41 140.64 236.41 145.93V168.33H1116.02V145.93C1116.03 140.64 1111.74 136.36 1106.46 136.36Z" fill="#0F4189"/>
<path d="M1106.5 136.36H245.94C240.68 136.36 236.42 140.62 236.42 145.88V168.33H1116.03V145.88C1116.03 140.62 1111.76 136.36 1106.5 136.36Z" fill="#61656D"/>
<path d="M1347.08 825.22H66.9592C66.6092 825.22 66.3691 824.98 66.3691 824.63C66.3691 824.28 66.6092 824.04 66.9592 824.04H1347.19C1347.54 824.04 1347.78 824.28 1347.78 824.63C1347.78 824.99 1347.43 825.22 1347.08 825.22Z" fill="#B2B6BB"/>
<path d="M286.18 386.38L286.19 736.99L744.98 736.97L744.97 386.36C744.97 377.33 737.65 370.01 728.62 370.01L302.54 370.03C293.5 370.02 286.18 377.35 286.18 386.38Z" fill="#B1B5BA"/>
<g opacity="0.3">
<path opacity="0.3" d="M1244.45 200.55L1247.39 200.73C1247.75 200.73 1248.01 200.46 1248.1 200.11C1248.1 199.75 1247.83 199.49 1247.48 199.4L1244.54 199.22C1243.83 199.13 1243.2 198.51 1243.29 197.79C1243.38 197.08 1244 196.45 1244.72 196.54C1245.08 196.54 1245.34 196.27 1245.43 195.92C1245.52 195.56 1245.16 195.3 1244.81 195.21C1243.38 195.12 1242.13 196.19 1241.95 197.62C1241.95 199.21 1243.03 200.46 1244.45 200.55Z" fill="black"/>
</g>
<path opacity="0.15" d="M275.72 410.06C274.71 410.37 273.71 410.44 272.67 410.25L261.76 408.27L272.66 411.16C273.73 411.44 274.87 411.29 275.82 410.73L276.59 410.28L275.72 410.06Z" fill="black"/>
<path opacity="0.15" d="M261.23 411.97L279.35 415.82C279.35 415.82 279.72 416.41 279.77 416.81L261.23 411.97Z" fill="black"/>
<path opacity="0.15" d="M272.98 417.4L267.08 413.49L267.69 413.65L273.16 416.8C273.16 416.8 273.18 416.9 272.98 417.4Z" fill="black"/>
<path opacity="0.4" d="M1241.99 273.31L1229.44 256.18L1215.63 271.5L1225.63 242.78L1237.13 233.39C1237.13 233.39 1235.82 234.46 1234.71 240.68C1233.96 244.88 1233.97 252.45 1233.97 252.45C1234.57 255.98 1236.4 260.75 1237.77 263.91L1241.99 273.31Z" fill="black"/>
<path opacity="0.4" d="M1267.82 269.85L1277.98 263.38L1297.15 277.64L1287.04 245.55L1278.8 233.89L1278.87 239.71C1278.99 250.15 1275.66 260.43 1269.01 268.47C1268.61 268.95 1268.22 269.4 1267.82 269.85Z" fill="black"/>
<path d="M1275.02 150.9C1286.23 150.9 1289.99 163.46 1289.99 178.64C1289.99 193.81 1286.63 202.7 1275.42 202.7C1264.21 202.7 1255.12 193.81 1255.12 178.64C1255.12 163.46 1263.81 150.9 1275.02 150.9Z" fill="#3F4249"/>
<path d="M1273.37 437.83C1260.88 327.27 1283.36 259.71 1291.31 236.42L1278.73 233.03L1237.15 233.39L1231.88 235.26C1230.81 255.96 1216 348.77 1201.72 437.74H1273.38V437.83H1273.37Z" fill="white"/>
<path d="M1230.8 805.13L1169.67 806.56L1192.78 790.05C1196.62 787.28 1199.03 782.91 1199.21 778.18L1200.01 760.06L1230.53 760.15L1230.8 805.13Z" fill="#F79898"/>
<path opacity="0.15" d="M1221.16 783.98V783.62C1221.34 781.57 1219.91 779.78 1217.95 779.52L1199.48 776.84L1199.66 773.18H1230.54L1230.81 804.21L1202.52 801.11L1210.82 797.81C1216.61 795.49 1220.63 790.14 1221.16 783.98Z" fill="black"/>
<path d="M1300.58 804.06H1274.53L1269.71 759.98L1300.49 760.06L1300.58 804.06Z" fill="#F79898"/>
<path opacity="0.15" d="M1294.07 796.65L1293.45 783.09C1293.36 781.31 1292.02 779.88 1290.24 779.61L1271.5 776.75L1271.05 773L1300.41 773.09L1300.5 804.32L1294.07 796.65Z" fill="black"/>
<path d="M1319.23 412.75L1302.27 773.18H1268.45L1255.96 479.32C1255.78 477.36 1254.18 475.93 1252.21 475.93C1250.34 475.93 1248.73 477.36 1248.55 479.32L1218.86 610.12L1231.6 773.18H1197.78L1172.16 610.33L1195.63 412.75H1319.23Z" fill="#0F4189"/>
<path opacity="0.2" d="M1319.23 412.75L1302.27 773.18H1268.45L1255.96 479.32C1255.78 477.36 1254.18 475.93 1252.21 475.93C1250.34 475.93 1248.73 477.36 1248.55 479.32L1218.86 610.12L1231.6 773.18H1197.78L1172.16 610.33L1195.63 412.75H1319.23Z" fill="white"/>
<path d="M1298.62 788.53L1297.82 787.73C1291.75 781.66 1281.31 781.75 1275.42 788L1274.97 788.54C1273.45 790.15 1272.65 792.2 1272.65 794.25V797.64C1272.65 799.6 1272.38 801.57 1271.76 803.44L1268.99 812.63C1268.28 814.86 1267.92 817.18 1267.92 819.5V820.66C1267.92 822.44 1269.53 823.87 1271.4 823.87H1303.44C1305.4 823.87 1306.92 822.44 1306.92 820.66V820.21C1306.92 817.53 1306.47 814.86 1305.58 812.27L1302.37 803.26C1301.66 801.21 1301.21 799.07 1301.21 796.83L1301.12 794.24C1301.03 792.19 1300.14 790.14 1298.62 788.53Z" fill="#3F4249"/>
<path d="M1303.17 773.18H1267.12L1266.41 765.78H1303.08L1303.17 773.18Z" fill="#0F4189"/>
<path opacity="0.15" d="M1303.17 773.18H1288.09L1287.73 765.78H1303.08L1303.17 773.18Z" fill="black"/>
<path opacity="0.5" d="M1306.92 820.21V820.66C1306.92 822.44 1305.31 823.87 1303.44 823.87H1271.4C1269.44 823.87 1267.92 822.44 1267.92 820.66V819.5C1267.92 819.05 1267.92 818.61 1268.01 818.16H1306.92C1306.92 818.78 1306.92 819.5 1306.92 820.21Z" fill="black"/>
<path d="M1231.6 794.87V817.45C1231.6 821.11 1228.66 824.05 1225 824.05H1148.26C1146.74 824.05 1145.49 822.8 1145.49 821.28C1145.49 815.93 1148.97 811.11 1154.06 809.41L1171.37 803.7L1193.32 786.66C1195.55 784.88 1198.76 784.96 1200.99 786.84L1210.72 795.14C1212.15 796.39 1214.11 796.75 1215.9 796.21L1228.21 792.37C1230 791.92 1231.6 793.17 1231.6 794.87Z" fill="#3F4249"/>
<path d="M1225 824.05H1148.26C1146.74 824.05 1145.49 822.8 1145.49 821.28C1145.49 820.3 1145.58 819.41 1145.85 818.51H1231.52C1230.98 821.64 1228.3 824.05 1225 824.05Z" fill="black"/>
<path d="M1193.77 795.67C1193.95 795.67 1194.13 795.58 1194.22 795.49C1194.49 795.22 1194.49 794.78 1194.22 794.51L1189.58 789.51C1189.31 789.24 1188.87 789.24 1188.6 789.51C1188.33 789.78 1188.33 790.22 1188.6 790.49L1193.24 795.49C1193.41 795.58 1193.59 795.67 1193.77 795.67Z" fill="white"/>
<path d="M1190.11 798.53C1190.29 798.53 1190.47 798.44 1190.56 798.35C1190.83 798.08 1190.83 797.64 1190.56 797.37L1185.92 792.37C1185.65 792.1 1185.21 792.1 1184.94 792.37C1184.67 792.64 1184.67 793.08 1184.94 793.35L1189.58 798.35C1189.75 798.44 1189.93 798.53 1190.11 798.53Z" fill="white"/>
<path d="M1186.45 801.38C1186.63 801.38 1186.81 801.29 1186.9 801.2C1187.17 800.93 1187.17 800.49 1186.9 800.22L1182.26 795.22C1181.99 794.95 1181.55 794.95 1181.28 795.22C1181.01 795.49 1181.01 795.93 1181.28 796.2L1185.92 801.2C1186 801.29 1186.18 801.38 1186.45 801.38Z" fill="white"/>
<path d="M1280.77 796.12C1280.86 796.12 1281.04 796.12 1281.13 796.03C1287.2 793 1292.91 796.03 1292.91 796.03C1293.27 796.21 1293.8 796.12 1293.98 795.67C1294.16 795.31 1294.07 794.78 1293.62 794.6C1293.35 794.42 1287.19 791.21 1280.32 794.6C1279.96 794.78 1279.78 795.31 1279.96 795.67C1280.15 795.94 1280.42 796.12 1280.77 796.12Z" fill="white"/>
<path d="M1280.77 800.22C1280.86 800.22 1281.04 800.22 1281.13 800.13C1287.29 797.1 1292.91 800.13 1292.91 800.13C1293.27 800.31 1293.8 800.22 1293.98 799.77C1294.16 799.41 1294.07 798.88 1293.62 798.7C1293.35 798.52 1287.19 795.31 1280.32 798.7C1279.96 798.88 1279.78 799.41 1279.96 799.77C1280.15 800.04 1280.42 800.22 1280.77 800.22Z" fill="white"/>
<path d="M1280.77 804.24C1280.86 804.24 1281.04 804.24 1281.13 804.15C1287.2 801.12 1292.91 804.15 1292.91 804.15C1293.27 804.33 1293.8 804.24 1293.98 803.79C1294.16 803.43 1294.07 802.9 1293.62 802.72C1293.35 802.54 1287.19 799.33 1280.32 802.72C1279.96 802.9 1279.78 803.43 1279.96 803.79C1280.15 804.06 1280.42 804.24 1280.77 804.24Z" fill="white"/>
<path opacity="0.15" d="M1216.6 771.67L1198.18 611.69L1230.44 491.64C1231.51 482.72 1239.1 476.02 1248.02 476.02H1252.21C1250.34 476.02 1248.73 477.45 1248.55 479.41L1218.86 610.12L1231.48 771.66L1216.6 771.67Z" fill="black"/>
<path d="M1232.5 773.18H1196.53L1195.75 765.78H1233.21L1232.5 773.18Z" fill="#0F4189"/>
<path opacity="0.15" d="M1232.5 773.18H1216.65L1216 765.78H1233.21L1232.5 773.18Z" fill="black"/>
<path d="M1237.85 184.66C1237.85 184.66 1274.26 161.82 1275.69 189.75L1276.23 196.98L1278.73 233.57C1278.73 234.64 1237.41 235 1237.59 233.66L1239.91 211.98C1239.46 210.11 1239.2 207.96 1239.2 205.55C1238.83 194.57 1237.85 184.66 1237.85 184.66Z" fill="#F79898"/>
<path d="M1282.83 234.66C1282.9 235.07 1282.92 235.45 1282.92 235.87C1282.92 243.52 1271.83 249.71 1258.15 249.71C1244.47 249.71 1233.38 243.51 1233.38 235.87C1233.38 235.04 1233.51 234.22 1233.76 233.43" fill="#0F4189"/>
<path d="M1258.16 246.08C1269.56 246.08 1278.8 240.918 1278.8 234.55C1278.8 228.182 1269.56 223.02 1258.16 223.02C1246.76 223.02 1237.52 228.182 1237.52 234.55C1237.52 240.918 1246.76 246.08 1258.16 246.08Z" fill="#F79898"/>
<path d="M1234.64 186.35C1241.44 186.35 1246.95 180.839 1246.95 174.04C1246.95 167.241 1241.44 161.73 1234.64 161.73C1227.84 161.73 1222.33 167.241 1222.33 174.04C1222.33 180.839 1227.84 186.35 1234.64 186.35Z" fill="#3F4249"/>
<path d="M1233.74 164.94C1233.74 164.94 1220.8 219.2 1248.64 222.85C1272.73 226.06 1275.41 188.49 1275.41 188.49L1274.25 164.13L1233.74 164.94Z" fill="#F79898"/>
<path d="M1271.22 182.08C1271.5 195.19 1266.32 202.64 1266.32 202.64C1236.49 198.61 1231.86 204.09 1231.86 204.09C1231.86 204.09 1233.67 218.97 1245.97 222.19C1258.26 225.41 1276.83 217.81 1276.77 200.99C1276.75 196.83 1269.94 174.37 1269.94 174.37L1271.22 182.08Z" fill="#3F4249"/>
<g opacity="0.3">
<path opacity="0.3" d="M1246.59 212.68C1246.59 212.77 1246.68 212.77 1246.59 212.68C1248.91 212.86 1249.98 212.95 1249.98 212.95C1250.43 212.95 1250.69 212.68 1250.78 212.24C1250.78 211.79 1250.51 211.44 1250.07 211.44C1250.07 211.44 1249 211.35 1246.77 211.17C1246.32 211.17 1245.97 211.44 1245.97 211.79C1245.97 212.33 1246.24 212.68 1246.59 212.68Z" fill="black"/>
</g>
<path d="M1245.43 209.51C1251.5 210.4 1254.26 207.1 1255.25 205.49C1255.43 205.13 1255.25 203.85 1254.89 203.58C1254.53 203.4 1241.95 206.61 1241.77 206.97C1241.68 207.33 1241.95 208.61 1242.31 208.79C1243.47 209.15 1244.54 209.42 1245.43 209.51Z" fill="white"/>
<path d="M1247.65 172.41C1258.56 172.41 1267.41 165.394 1267.41 156.74C1267.41 148.086 1258.56 141.07 1247.65 141.07C1236.74 141.07 1227.89 148.086 1227.89 156.74C1227.89 165.394 1236.74 172.41 1247.65 172.41Z" fill="#3F4249"/>
<path d="M1273.28 151.16C1280.11 151.16 1285.66 158.15 1285.66 166.77C1285.66 175.39 1280.12 184.25 1273.28 184.25C1266.44 184.25 1260.9 175.39 1260.9 166.77C1260.9 158.15 1266.45 151.16 1273.28 151.16Z" fill="#3F4249"/>
<path opacity="0.15" d="M1276.22 198.76C1276.22 198.76 1273.9 198.94 1272.65 197.96L1276.58 204.03L1276.22 198.76Z" fill="black"/>
<path d="M1272.8 184.17C1272.8 184.17 1276.67 179.22 1282.02 181.54C1288.09 184.22 1286.84 197.96 1276.58 198.76C1271.23 199.21 1272.3 196.08 1273.19 191.89C1273.28 186.89 1272.8 184.17 1272.8 184.17Z" fill="#F79898"/>
<path opacity="0.3" d="M1282.29 185.11C1281.22 184.4 1280.24 184.13 1279.35 184.31C1278.46 184.49 1277.65 185.11 1277.03 186.18C1276.41 187.25 1276.05 188.5 1276.05 189.93L1275.96 191.09C1275.96 191.45 1276.23 191.71 1276.58 191.71C1276.94 191.71 1277.2 191.44 1277.2 191.09L1277.29 189.93C1277.29 189.57 1277.47 187.79 1278.09 186.81C1278.54 186.1 1279.07 185.65 1279.61 185.47C1280.15 185.38 1280.86 185.56 1281.57 186.01C1281.84 186.19 1282.28 186.1 1282.46 185.83C1282.65 185.73 1282.56 185.38 1282.29 185.11Z" fill="black"/>
<path d="M1233.56 169.32C1234.64 170.13 1236.99 171.21 1236.99 171.21C1237.24 171.3 1237.64 171.26 1237.76 170.93C1237.88 170.6 1237.81 170.28 1237.48 170.16C1237.48 170.16 1234.24 168.24 1233.94 168.03C1233.36 167.53 1232.44 166.86 1231.43 165.71C1231.24 165.45 1230.88 165.41 1230.62 165.6C1230.36 165.79 1230.32 166.15 1230.51 166.41C1231.44 167.7 1233.2 169.04 1233.56 169.32Z" fill="#F79898"/>
<path opacity="0.15" d="M1238.4 226.81L1239.19 218.49C1242.17 221.35 1247.09 223.56 1254.76 222.77C1254.76 222.77 1259.96 222.39 1265.51 219.4C1265.91 219.15 1266.16 219.12 1266.4 219.33C1266.59 219.59 1266.5 219.83 1266.28 220.04C1265.19 220.97 1261.04 223.04 1254.53 223.99C1245.46 229.79 1238.4 226.81 1238.4 226.81Z" fill="black"/>
<path d="M1253.73 192.52C1254.96 192.52 1255.96 191.521 1255.96 190.29C1255.96 189.058 1254.96 188.06 1253.73 188.06C1252.5 188.06 1251.5 189.058 1251.5 190.29C1251.5 191.521 1252.5 192.52 1253.73 192.52Z" fill="#21252B"/>
<path d="M1252.75 190.02C1253 190.02 1253.2 189.818 1253.2 189.57C1253.2 189.321 1253 189.12 1252.75 189.12C1252.5 189.12 1252.3 189.321 1252.3 189.57C1252.3 189.818 1252.5 190.02 1252.75 190.02Z" fill="white"/>
<path d="M1236.07 192.6C1237.3 192.6 1238.3 191.601 1238.3 190.37C1238.3 189.138 1237.3 188.14 1236.07 188.14C1234.84 188.14 1233.84 189.138 1233.84 190.37C1233.84 191.601 1234.84 192.6 1236.07 192.6Z" fill="#21252B"/>
<path d="M1235.08 190.109C1235.33 190.109 1235.53 189.908 1235.53 189.659C1235.53 189.411 1235.33 189.209 1235.08 189.209C1234.83 189.209 1234.63 189.411 1234.63 189.659C1234.63 189.908 1234.83 190.109 1235.08 190.109Z" fill="white"/>
<path d="M1226.52 187.79V190.29C1226.52 195.11 1230.45 199.04 1235.27 199.04C1240.09 199.04 1244.02 195.11 1244.02 190.29V187.79C1244.02 187.08 1243.84 186.36 1243.4 185.83H1246.79C1246.34 186.37 1246.08 187.08 1246.08 187.79V190.29C1246.08 195.11 1250.01 199.04 1254.83 199.04C1259.65 199.04 1263.58 195.11 1263.58 190.29V187.79C1263.58 186.01 1262.15 184.58 1260.37 184.58H1249.39H1249.3H1240.82H1239.48H1229.75C1227.94 184.57 1226.52 186 1226.52 187.79ZM1249.18 185.91H1249.27H1260.25C1261.32 185.91 1262.21 186.8 1262.21 187.87V190.37C1262.21 194.47 1258.82 197.78 1254.71 197.78C1250.61 197.78 1247.3 194.39 1247.3 190.28V187.78C1247.31 186.72 1248.2 185.91 1249.18 185.91ZM1227.68 187.88C1227.68 186.81 1228.57 185.92 1229.64 185.92H1239.37H1240.71C1241.78 185.92 1242.67 186.81 1242.67 187.88V190.38C1242.67 194.48 1239.28 197.79 1235.17 197.79C1231.07 197.79 1227.76 194.4 1227.76 190.29L1227.68 187.88Z" fill="#21252B"/>
<g opacity="0.15">
<path opacity="0.15" d="M1205.46 421.68H1281.22C1281.67 421.68 1281.93 421.32 1281.93 420.97C1281.93 420.61 1281.57 420.26 1281.22 420.26H1205.46C1205.01 420.26 1204.75 420.62 1204.75 420.97C1204.74 421.32 1205.01 421.68 1205.46 421.68Z" fill="black"/>
</g>
<path opacity="0.15" d="M1234.64 234.46C1234.64 234.46 1231.43 345.47 1222.95 420.43H1212.06L1234.64 234.46Z" fill="black"/>
<path opacity="0.15" d="M1259.36 420.87L1304.25 426.94C1304.25 426.94 1305.41 430.15 1306.84 434.88L1319.33 440.5L1302.37 765.59L1287.82 765.68L1291.57 482.35C1253.11 468.62 1259.36 420.87 1259.36 420.87Z" fill="black"/>
<path opacity="0.15" d="M1194.93 470.4C1194.84 470.4 1194.75 470.31 1194.66 470.31L1201.17 420.43H1222.85L1218.92 456.57C1217.68 468.08 1205.55 475.13 1194.93 470.4Z" fill="black"/>
<g opacity="0.15">
<path opacity="0.15" d="M1217.41 248.38H1251.94L1254.53 250.61C1255.15 251.15 1256.05 251.23 1256.76 250.7L1260.15 248.38H1298.08V252.31H1217.41V248.38Z" fill="#0F4189"/>
<path opacity="0.15" d="M1298.08 265.24H1217.41V269.17H1298.08V265.24Z" fill="#0F4189"/>
<path opacity="0.15" d="M1298.08 282.2H1217.41V286.13H1298.08V282.2Z" fill="black"/>
<path opacity="0.15" d="M1298.08 299.07H1217.41V303H1298.08V299.07Z" fill="black"/>
<path opacity="0.15" d="M1298.08 316.02H1217.41V319.95H1298.08V316.02Z" fill="black"/>
<path opacity="0.15" d="M1298.08 332.89H1217.41V336.82H1298.08V332.89Z" fill="black"/>
<path opacity="0.15" d="M1298.08 349.84H1217.41V353.77H1298.08V349.84Z" fill="black"/>
<path opacity="0.15" d="M1298.09 366.71H1213.4V370.64H1298.09V366.71Z" fill="black"/>
<path opacity="0.15" d="M1298.08 383.66H1210.72V387.59H1298.08V383.66Z" fill="black"/>
<path opacity="0.15" d="M1298.09 400.53H1205.46V404.46H1298.09V400.53Z" fill="black"/>
</g>
<path d="M1321.15 470.12L1323.46 470.35L1322.88 336.81L1342.24 276.23C1344.72 269.35 1344.5 261.66 1341.12 255.17C1338.39 249.92 1335.88 246.09 1328.92 243.35L1278.8 233.9C1278.8 233.9 1279.66 249.01 1274.28 260.63C1271.43 266.77 1261.28 277.65 1260.82 278.7C1259.22 282.35 1258.03 407.03 1260.22 466.45L1315.22 470.23C1316.93 470.26 1318.52 470.23 1318.52 470.23C1318.79 470.05 1319.23 458.4 1319.23 458.4L1321.15 470.12Z" fill="#21252B"/>
<path d="M1183.06 274.88L1187.9 467.5C1187.92 467.72 1220.02 467.37 1220.02 467.37C1224.09 453.25 1241.99 273.31 1241.99 273.31C1241.99 273.31 1234.01 256.78 1234.01 251.61C1234.01 236.08 1237.13 233.38 1237.13 233.38L1202.86 244.71C1192.52 247.93 1182.43 260.78 1183.06 274.88Z" fill="#21252B"/>
<path d="M1203.97 325.98L1196.9 321.63C1194.29 320.04 1191.52 318.67 1188.58 317.66L1176.29 314.42C1175.99 314.31 1175.67 314.33 1175.44 314.61C1174.18 317.08 1175.34 319.09 1177.57 320.62C1179.01 321.53 1181.48 322.79 1182.98 323.33C1184.23 323.83 1183.41 324.66 1182.69 324.43L1157.94 320.28C1156.83 320.11 1155.71 320.83 1155.49 321.87C1155.25 323.04 1155.9 324.21 1157.06 324.45C1161.64 325.58 1172.18 328.24 1172.18 328.24L1154.42 327.28C1153.29 327.24 1152.27 328.1 1152.11 329.21C1151.96 330.64 1152.98 331.87 1154.34 332.07C1159.86 332.83 1172.65 334.82 1172.65 334.82L1157.1 334.32C1156.02 334.35 1155.2 335.17 1155.16 336.31C1155.12 337.44 1155.92 338.39 1157.04 338.55C1161.78 339.01 1171.39 340.7 1171.39 340.7L1161.57 340.37C1160.74 340.44 1160.11 341.23 1160.13 341.99C1160.2 342.82 1160.79 343.48 1161.59 343.66L1198.94 349.39L1212.27 353.73L1234.51 334.54L1203.97 325.98Z" fill="#F79898"/>
<path opacity="0.15" d="M1204.65 326.14L1196.98 348.97L1198.96 349.27L1200.41 349.74L1204.65 326.14Z" fill="black"/>
<path d="M1343.07 273.96L1311.64 371.74C1308.31 382.1 1296.94 387.45 1286.85 383.55L1197.59 349.23L1205.04 326.04L1276.44 344.21L1301.8 258.91" fill="#21252B"/>
<path opacity="0.4" d="M1287.26 371.22C1294.23 373.74 1302.12 370.47 1304.94 361.72L1333.21 269.39C1335.73 259.51 1335.24 251.11 1328.92 243.36L1330.57 244.36C1342.04 250.95 1346.76 264.84 1342.15 276.86L1311.67 371.67C1308.34 382.03 1296.94 387.46 1286.82 383.37L1197.59 349.25L1199.31 343.9L1287.26 371.22Z" fill="black"/>
<path opacity="0.4" d="M1228.59 332.12L1229.14 330.7L1265.73 339.93L1290.8 292.11C1291.08 291.54 1291.93 291.82 1291.79 292.52L1276.32 344.27L1265.06 341.4L1228.59 332.12Z" fill="black"/>
<g opacity="0.15">
<path opacity="0.15" d="M1191.55 312.91C1185.82 309.53 1187.6 303.61 1187.6 303.61L1188.54 303.89C1188.45 304.08 1186.94 309.15 1192.11 312.16L1191.55 312.91Z" fill="black"/>
</g>
<path d="M1237.14 233.39L1004.17 237.2V264.3L1127.24 271.96L1198.18 286.13" fill="#21252B"/>
<path d="M130.561 768.93C131.681 773.04 131.871 774.54 131.771 778.56L131.861 805.66C131.671 810.33 130.361 815 128.031 819.12L127.471 820.05C126.071 822.48 123.551 823.97 120.741 823.97H112.981C109.431 823.97 106.351 821.54 105.411 818.08C104.381 814.06 104.291 809.86 105.041 805.84L111.581 776.87C112.051 774.44 112.701 771.64 113.921 769.02L130.561 768.93Z" fill="#0F4189"/>
<path d="M235.6 705.29L237.19 755.85C237.19 760.62 238.4 765.66 240.27 768.19L262.88 807.53L257.65 814.73L237.18 804.54L218.96 771.65C219.05 766.04 218.4 762.68 217.46 755.11L208.4 699.32L235.6 705.29Z" fill="#F89999"/>
<path opacity="0.15" d="M237.09 773.23C235.03 770.15 232.32 762.95 231.76 759.59L229.33 741.55C229.14 740.15 228.12 739.12 226.71 738.93L214.28 737.25L214.09 734.54H236.52L237.17 756.03C237.26 759.49 237.92 765 240.25 768.37L262.86 807.71L259.68 813.04L237.09 773.23Z" fill="black"/>
<path d="M273.54 814.16L262.79 807.62C255.03 808.93 247.18 805.94 242.14 799.86L218.87 771.64C214.66 780.61 213.17 790.61 214.57 800.52L217.93 823.88H220.64L221.39 799.86C221.48 798.08 223.63 797.34 224.75 798.74L238.95 816.12C242.97 821.07 249.04 823.97 255.4 823.97H277.55C279.33 823.97 280.45 822.19 279.79 820.61C278.58 817.71 276.34 815.38 273.54 814.16Z" fill="#0F4189"/>
<path d="M131.59 756.69C130.47 766.41 129.91 776.22 130.09 786.03L130.28 797.71C130.09 802.85 125.89 806.96 120.75 806.96H119.16C113.37 806.96 108.88 801.82 109.72 796.12L112.43 782.29C113.83 775.28 114.3 768.09 113.93 760.89L111.31 713.7L135.7 714.07L131.59 756.69Z" fill="#F89999"/>
<path d="M208.211 377.57L226.331 437.29C228.761 464.67 231.201 493.72 231.951 521.2L237.651 734.45H213.071L167.371 435.69C167.091 433.63 165.311 432.23 163.261 432.23C161.111 432.23 159.341 433.91 159.151 436.06L135.411 734.44L111.211 734.25L100.561 513.52C98.6006 472.78 102.431 431.94 111.961 392.32L115.601 377.37L208.211 377.57Z" fill="#3F4249"/>
<path opacity="0.15" d="M133.639 734.45C133.639 734.45 130.739 764.73 130.459 768.75V768.84C130.089 774.54 129.989 780.24 130.089 785.94L130.279 797.62C130.089 802.57 126.169 806.59 121.219 806.78C125.709 803.32 125.329 797.72 125.429 793.51L126.179 742.21C126.179 740.53 125.059 739.13 123.379 738.75L112.539 736.79L112.449 734.36L133.639 734.45Z" fill="black"/>
<path d="M237.56 734.45H227.75L212.14 432.24C206.53 389.48 185.13 386.92 185.13 377.57L115.42 377.38C115.42 377.38 115.42 377.38 115.42 377.29L185.13 377.48L207.84 377.57H208.12L223.35 399.92C223.35 399.92 231.1 493.73 231.85 521.2L237.56 734.45Z" fill="#32353A"/>
<path d="M163.27 432.24C162.15 432.24 161.21 432.61 160.47 433.36C159.72 434.01 159.26 434.95 159.16 436.07L135.33 734.55L126.73 734.46L141.31 453.18C141.96 441.39 151.58 432.24 163.27 432.24Z" fill="#32353A"/>
<path d="M100.369 269.08C98.8091 255.64 103.709 250.83 103.709 250.83L153.639 297.58C153.639 297.58 162.009 343.61 164.279 343.63C164.279 343.63 142.109 366.15 134.159 355.72C120.769 338.17 101.929 282.53 100.369 269.08Z" fill="#0F4189"/>
<path opacity="0.15" d="M164.049 343.43C164.049 343.43 160.809 337.71 155.989 310C155.449 306.89 153.659 297.61 153.659 297.61C148.689 293.89 142.219 289.02 138.249 286.16C137.299 285.5 136.049 286.47 136.569 287.5L151.719 339.22C152.569 341.33 164.049 343.43 164.049 343.43Z" fill="black"/>
<path d="M114.559 243.77L145.249 237.52L195.249 238.08L217.159 243.55C228.629 247.19 229.209 257.13 229.029 269.17L227.089 284.44L231.849 300.86C234.649 311.49 231.009 317.65 223.639 326.23C221.309 328.94 220.099 330.05 219.159 335.18L223.369 399.92L110.379 399.23C112.479 368.84 103.229 321.76 101.899 314.7C96.5993 286.59 96.7493 268.5 96.7493 268.5C96.1793 257.02 103.639 246.29 114.559 243.77Z" fill="#0F4189"/>
<path d="M164.28 343.64L211.11 365.61L199.34 385.85C199.34 385.85 188.69 383.31 176.78 379.72C164.87 376.13 150.6 371.1 144.33 367.94C132.54 362.01 127.03 343.82 123.42 336.61" fill="#0F4189"/>
<path opacity="0.6" d="M208.609 364.32L203.919 361.4L190.949 383.82L195.599 385.33L208.609 364.32Z" fill="black"/>
<path d="M152.109 196.44L151.149 230.87C151.049 233.64 149.139 236.04 146.459 236.8L142.539 238.07L151.529 243.4C160.509 248.98 171.539 249.91 181.209 246.19C182.969 245.51 184.689 244.68 186.349 243.69L196.109 238.31L191.709 236.61C189.219 235.94 187.409 233.74 187.119 231.25L182.619 190.31L152.109 196.44Z" fill="#F89999"/>
<path d="M176.5 224.43L174.87 224.53C163.1 225.01 153.25 215.92 152.77 204.25L151.53 174.5C151.34 170.58 154.4 167.33 158.32 167.13L186.15 165.89C191.22 165.7 195.52 169.62 195.72 174.69L196.87 202.33C197.26 214 188.17 223.95 176.5 224.43Z" fill="#F89999"/>
<path d="M174.21 194.2C175.48 194.2 176.51 193.17 176.51 191.9C176.51 190.63 175.48 189.6 174.21 189.6C172.94 189.6 171.91 190.63 171.91 191.9C171.91 193.17 172.94 194.2 174.21 194.2Z" fill="#21252B"/>
<path d="M175.169 191.91C175.434 191.91 175.649 191.695 175.649 191.43C175.649 191.165 175.434 190.95 175.169 190.95C174.904 190.95 174.689 191.165 174.689 191.43C174.689 191.695 174.904 191.91 175.169 191.91Z" fill="white"/>
<path d="M192.101 194.2C193.371 194.2 194.401 193.17 194.401 191.9C194.401 190.63 193.371 189.6 192.101 189.6C190.831 189.6 189.801 190.63 189.801 191.9C189.801 193.17 190.831 194.2 192.101 194.2Z" fill="#21252B"/>
<path d="M193.05 191.81C193.315 191.81 193.53 191.595 193.53 191.33C193.53 191.065 193.315 190.85 193.05 190.85C192.785 190.85 192.57 191.065 192.57 191.33C192.57 191.595 192.785 191.81 193.05 191.81Z" fill="white"/>
<g opacity="0.15">
<path opacity="0.15" d="M183.769 205.3L180.709 205.59C180.329 205.59 180.039 205.3 179.939 205.02C179.939 204.64 180.229 204.35 180.509 204.25L183.569 203.96C184.339 203.86 184.909 203.19 184.809 202.43C184.709 201.66 184.039 201.09 183.279 201.09C182.899 201.09 182.609 200.8 182.509 200.52C182.509 200.14 182.799 199.85 183.079 199.75C184.609 199.65 185.949 200.8 186.049 202.24C186.449 203.86 185.299 205.2 183.769 205.3Z" fill="black"/>
</g>
<path opacity="0.15" d="M151.85 205.49H155.1L151.66 212.37L151.85 205.49Z" fill="black"/>
<path opacity="0.15" d="M186.15 221.62C182.9 223.53 179.17 224.39 175.25 224.59C174.39 224.59 173.53 224.59 172.67 224.59C172.38 224.59 172 224.59 171.71 224.49C171.61 224.49 171.61 224.49 171.52 224.49C171.04 224.39 170.56 224.39 169.99 224.3C169.8 224.3 169.61 224.2 169.42 224.2C166.07 223.63 163.59 222.48 161.96 221.52C161.67 221.33 161.29 221.42 161.1 221.71C160.91 222 161 222.38 161.29 222.57C163.39 223.81 166.65 225.25 171.05 225.73C173.35 227.45 177.27 229.56 182.24 229.56C183.87 229.56 185.49 229.37 187.02 228.99L186.15 221.62Z" fill="black"/>
<path d="M185.501 208.93C185.791 208.93 185.981 209.22 185.881 209.5C184.731 211.7 182.531 213.23 179.951 213.23C177.371 213.23 175.171 211.7 174.021 209.5C173.921 209.21 174.021 208.93 174.401 208.93H185.501Z" fill="white"/>
<path d="M142.551 238.08C142.551 254.46 173.311 267.52 173.311 267.52C173.311 267.52 196.111 254.7 196.111 238.32L191.041 236.39L142.551 238.08Z" fill="#F89999"/>
<path d="M192.67 185.11C189.8 185.4 187.31 186.93 185.78 189.13C183.2 188.27 181 188.84 180.04 189.23C178.32 186.36 175.07 184.54 171.43 184.83C166.36 185.21 162.53 189.71 162.92 194.78C163.3 199.85 167.8 203.68 172.87 203.29C177.94 202.91 181.77 198.41 181.38 193.34C181.28 192.29 181 191.33 180.61 190.37C181.47 190.08 183.29 189.7 185.2 190.27C184.43 191.7 184.15 193.43 184.24 195.15C184.62 200.22 189.12 204.05 194.19 203.66C199.26 203.28 203.09 198.78 202.7 193.71C202.31 188.64 197.83 184.83 192.67 185.11ZM172.97 202.04C168.57 202.42 164.74 199.07 164.36 194.67C163.98 190.27 167.33 186.44 171.73 186.06C176.13 185.68 179.96 189.03 180.34 193.43C180.62 197.83 177.27 201.76 172.97 202.04ZM194.1 202.43C189.7 202.81 185.87 199.46 185.49 195.06C185.11 190.66 188.46 186.83 192.86 186.45C197.26 186.07 201.09 189.42 201.47 193.82C201.85 198.22 198.5 202.04 194.1 202.43Z" fill="white"/>
<path d="M149.68 206.39C149.68 206.39 139.51 206.12 138.41 195.98C137.33 185.75 149.89 185.21 150.58 195.46L150.81 206.6L149.68 206.39Z" fill="#F89999"/>
<path opacity="0.15" d="M142.07 191.03C143.26 190.38 144.26 190.28 145.18 190.55C146.1 190.82 146.84 191.55 147.4 192.72C147.96 193.9 148.27 195.32 148.1 196.75L148 197.8C147.95 198.57 146.56 198.7 146.65 197.74C146.68 196.58 146.68 196.58 146.68 196.58C146.75 196.2 146.71 194.35 146.14 193.27C145.72 192.41 145.23 191.93 144.68 191.73C144.13 191.53 143.42 191.69 142.56 192.11C142.24 192.24 141.87 192.17 141.64 191.84C141.59 191.52 141.75 191.16 142.07 191.03Z" fill="black"/>
<path d="M149.243 202.911C149.449 201.821 148.733 200.769 147.642 200.563C146.551 200.356 145.5 201.073 145.293 202.163C145.086 203.254 145.803 204.306 146.894 204.512C147.984 204.719 149.036 204.002 149.243 202.911Z" fill="#0F4189"/>
<path opacity="0.15" d="M147.82 204.38C146.58 204.24 145.71 203.2 145.84 201.96C145.91 201.58 146.09 201.13 146.34 200.89C145.8 201.18 145.39 201.78 145.27 202.44C145.15 203.59 145.95 204.52 147.09 204.64C147.47 204.71 147.97 204.61 148.31 204.38C148.12 204.34 147.93 204.31 147.82 204.38Z" fill="black"/>
<path d="M200.08 173.9L190.87 160.82L180.34 167.74C187.15 167.74 194.38 168.99 195.73 177.92L196.11 184.1L200.08 173.9Z" fill="#21252B"/>
<path opacity="0.15" d="M221.549 372.11L164.079 336.65L145.689 287.93L170.199 333.66L221.029 364.04L221.549 372.11Z" fill="black"/>
<path opacity="0.15" d="M96.8398 272.96L129.29 350.28C133.29 360.15 141.42 367.77 151.52 371.13L223 394.3L223.36 399.91L145.02 377.65C138.03 375.41 132.47 370.07 129.94 363.18L96.8398 272.96Z" fill="black"/>
<path d="M264.249 157.15C266.905 157.15 269.059 154.996 269.059 152.34C269.059 149.683 266.905 147.53 264.249 147.53C261.592 147.53 259.439 149.683 259.439 152.34C259.439 154.996 261.592 157.15 264.249 157.15Z" fill="#263238"/>
<path d="M290.371 157.15C293.028 157.15 295.181 154.996 295.181 152.34C295.181 149.683 293.028 147.53 290.371 147.53C287.715 147.53 285.561 149.683 285.561 152.34C285.561 154.996 287.715 157.15 290.371 157.15Z" fill="#263238"/>
<path d="M316.49 157.15C319.146 157.15 321.3 154.996 321.3 152.34C321.3 149.683 319.146 147.53 316.49 147.53C313.833 147.53 311.68 149.683 311.68 152.34C311.68 154.996 313.833 157.15 316.49 157.15Z" fill="#263238"/>
<path d="M942.04 467.25L795.18 467.26V376.04C795.18 372.71 797.88 370.01 801.21 370.01L936 370C939.33 370 942.03 372.7 942.03 376.03L942.04 467.25Z" fill="white"/>
<path d="M885.279 418.63C885.279 427.84 877.819 435.3 868.609 435.3C859.399 435.3 851.939 427.84 851.939 418.63C851.939 409.42 859.399 401.96 868.609 401.96C877.809 401.96 885.279 409.42 885.279 418.63Z" fill="#0F4189"/>
<path opacity="0.7" d="M885.279 418.63C885.279 427.84 877.819 435.3 868.609 435.3C859.399 435.3 851.939 427.84 851.939 418.63C851.939 409.42 859.399 401.96 868.609 401.96C877.809 401.96 885.279 409.42 885.279 418.63Z" fill="white"/>
<path d="M861.57 425.68V411.58L879.19 418.63L861.57 425.68Z" fill="white"/>
<path d="M942.071 457.94H795.141V467.31H942.071V457.94Z" fill="#EBEBEB"/>
<path d="M932.399 461.24H806.119V464.02H932.399V461.24Z" fill="#B1B5BA"/>
<path d="M802.699 459.67H796.779V465.59H802.699V459.67Z" fill="#B1B5BA"/>
<path d="M799.29 460.72H798.17V464.53H799.29V460.72Z" fill="#61656D"/>
<path d="M801.309 460.72H800.189V464.53H801.309V460.72Z" fill="#61656D"/>
<path d="M940.68 459.66H934.76V465.58H940.68V459.66Z" fill="#B1B5BA"/>
<path d="M936.81 461.9H935.65V463.34H936.81V461.9Z" fill="#61656D"/>
<path d="M938.109 464.26L936.359 463.34V461.9L938.109 460.98V464.26Z" fill="#61656D"/>
<path d="M938.971 461.53C939.061 461.44 939.151 461.35 939.231 461.26C939.531 461.56 939.721 461.92 939.781 462.35C939.871 462.98 939.671 463.52 939.241 463.98C939.151 463.89 939.061 463.8 938.971 463.71C939.261 463.41 939.421 463.04 939.421 462.62C939.421 462.2 939.261 461.83 938.971 461.53Z" fill="#61656D"/>
<path d="M938.7 463.45C938.61 463.36 938.52 463.27 938.43 463.18C938.58 463.03 938.66 462.84 938.66 462.62C938.66 462.4 938.58 462.22 938.43 462.06C938.52 461.97 938.61 461.88 938.69 461.79C939.14 462.22 939.18 462.98 938.7 463.45Z" fill="#61656D"/>
<path d="M834.669 462.63C834.669 463.13 834.779 463.6 834.989 464.02H806.119V461.23H835.009C834.789 461.65 834.669 462.13 834.669 462.63Z" fill="#61656D"/>
<path d="M841.01 462.63C841.01 463.13 840.9 463.6 840.69 464.02C840.17 465.08 839.08 465.8 837.83 465.8C836.58 465.8 835.49 465.08 834.98 464.02C834.77 463.61 834.66 463.13 834.66 462.63C834.66 462.13 834.78 461.64 834.99 461.23C835.5 460.17 836.57 459.45 837.83 459.45C839.08 459.45 840.15 460.17 840.68 461.23C840.89 461.65 841.01 462.13 841.01 462.63Z" fill="#61656D"/>
<path d="M1008.54 391.96H963.141C960.241 391.96 957.891 389.61 957.891 386.71C957.891 383.81 960.241 381.46 963.141 381.46H1008.54C1011.44 381.46 1013.79 383.81 1013.79 386.71C1013.8 389.6 1011.45 391.96 1008.54 391.96Z" fill="white"/>
<path d="M1064.46 424.67H960.831C959.211 424.67 957.891 423.35 957.891 421.73C957.891 420.11 959.211 418.79 960.831 418.79H1064.46C1066.08 418.79 1067.4 420.11 1067.4 421.73C1067.4 423.35 1066.09 424.67 1064.46 424.67Z" fill="white"/>
<path d="M1064.46 441.03H960.831C959.211 441.03 957.891 439.71 957.891 438.09C957.891 436.47 959.211 435.15 960.831 435.15H1064.46C1066.08 435.15 1067.4 436.47 1067.4 438.09C1067.4 439.71 1066.09 441.03 1064.46 441.03Z" fill="white"/>
<path d="M1064.46 457.38H960.831C959.211 457.38 957.891 456.06 957.891 454.44C957.891 452.82 959.211 451.5 960.831 451.5H1064.46C1066.08 451.5 1067.4 452.82 1067.4 454.44C1067.4 456.07 1066.09 457.38 1064.46 457.38Z" fill="white"/>
<path d="M942.04 602.17L795.18 602.18V510.96C795.18 507.63 797.88 504.93 801.21 504.93L936.02 504.92C939.35 504.92 942.05 507.62 942.05 510.95L942.04 602.17Z" fill="white"/>
<path d="M885.279 553.55C885.279 562.76 877.819 570.22 868.609 570.22C859.399 570.22 851.939 562.76 851.939 553.55C851.939 544.34 859.399 536.88 868.609 536.88C877.809 536.87 885.279 544.34 885.279 553.55Z" fill="#0F4189"/>
<path opacity="0.7" d="M885.279 553.55C885.279 562.76 877.819 570.22 868.609 570.22C859.399 570.22 851.939 562.76 851.939 553.55C851.939 544.34 859.399 536.88 868.609 536.88C877.809 536.87 885.279 544.34 885.279 553.55Z" fill="white"/>
<path d="M861.57 560.6V546.5L879.19 553.55L861.57 560.6Z" fill="white"/>
<path d="M942.061 592.56H795.131V601.93H942.061V592.56Z" fill="#EBEBEB"/>
<path d="M932.389 595.86H806.109V598.64H932.389V595.86Z" fill="#B1B5BA"/>
<path d="M802.699 594.29H796.779V600.21H802.699V594.29Z" fill="#B1B5BA"/>
<path d="M799.29 595.34H798.17V599.15H799.29V595.34Z" fill="#61656D"/>
<path d="M801.309 595.34H800.189V599.15H801.309V595.34Z" fill="#61656D"/>
<path d="M940.68 594.28H934.76V600.2H940.68V594.28Z" fill="#B1B5BA"/>
<path d="M936.801 596.52H935.641V597.96H936.801V596.52Z" fill="#61656D"/>
<path d="M938.1 598.88L936.35 597.96V596.52L938.1 595.6V598.88Z" fill="#61656D"/>
<path d="M938.961 596.15C939.051 596.06 939.141 595.97 939.221 595.88C939.521 596.18 939.711 596.54 939.771 596.97C939.861 597.6 939.661 598.14 939.231 598.6C939.141 598.51 939.051 598.42 938.961 598.33C939.251 598.03 939.411 597.66 939.411 597.24C939.421 596.81 939.261 596.45 938.961 596.15Z" fill="#61656D"/>
<path d="M938.7 598.06C938.61 597.97 938.52 597.88 938.43 597.79C938.58 597.64 938.66 597.45 938.66 597.23C938.66 597.01 938.58 596.83 938.43 596.67C938.52 596.58 938.61 596.49 938.69 596.4C939.14 596.84 939.17 597.6 938.7 598.06Z" fill="#61656D"/>
<path d="M834.669 597.25C834.669 597.75 834.779 598.22 834.989 598.64H806.119V595.85H835.009C834.789 596.27 834.669 596.75 834.669 597.25Z" fill="#61656D"/>
<path d="M841.01 597.25C841.01 597.75 840.9 598.22 840.69 598.64C840.17 599.7 839.08 600.42 837.83 600.42C836.58 600.42 835.49 599.7 834.98 598.64C834.77 598.23 834.66 597.75 834.66 597.25C834.66 596.75 834.78 596.26 834.99 595.85C835.5 594.79 836.57 594.07 837.83 594.07C839.08 594.07 840.15 594.79 840.68 595.85C840.88 596.26 841.01 596.75 841.01 597.25Z" fill="#61656D"/>
<path d="M1008.54 526.87H963.141C960.241 526.87 957.891 524.52 957.891 521.62C957.891 518.72 960.241 516.37 963.141 516.37H1008.54C1011.44 516.37 1013.79 518.72 1013.79 521.62C1013.8 524.52 1011.45 526.87 1008.54 526.87Z" fill="white"/>
<path d="M1064.46 559.58H960.831C959.211 559.58 957.891 558.26 957.891 556.64C957.891 555.02 959.211 553.7 960.831 553.7H1064.46C1066.08 553.7 1067.4 555.02 1067.4 556.64C1067.4 558.27 1066.09 559.58 1064.46 559.58Z" fill="white"/>
<path d="M1064.46 575.94H960.831C959.211 575.94 957.891 574.62 957.891 573C957.891 571.38 959.211 570.06 960.831 570.06H1064.46C1066.08 570.06 1067.4 571.38 1067.4 573C1067.4 574.62 1066.09 575.94 1064.46 575.94Z" fill="white"/>
<path d="M1064.46 592.3H960.831C959.211 592.3 957.891 590.98 957.891 589.36C957.891 587.74 959.211 586.42 960.831 586.42H1064.46C1066.08 586.42 1067.4 587.74 1067.4 589.36C1067.4 590.98 1066.09 592.3 1064.46 592.3Z" fill="white"/>
<path d="M942.04 736.92L795.18 736.93V645.71C795.18 642.38 797.88 639.68 801.21 639.68L936.02 639.67C939.35 639.67 942.05 642.37 942.05 645.7L942.04 736.92Z" fill="white"/>
<path d="M885.279 688.3C885.279 697.51 877.819 704.97 868.609 704.97C859.399 704.97 851.939 697.51 851.939 688.3C851.939 679.09 859.399 671.63 868.609 671.63C877.809 671.63 885.279 679.09 885.279 688.3Z" fill="#0F4189"/>
<path opacity="0.7" d="M885.279 688.3C885.279 697.51 877.819 704.97 868.609 704.97C859.399 704.97 851.939 697.51 851.939 688.3C851.939 679.09 859.399 671.63 868.609 671.63C877.809 671.63 885.279 679.09 885.279 688.3Z" fill="white"/>
<path d="M861.57 695.35V681.26L879.19 688.3L861.57 695.35Z" fill="white"/>
<path d="M942.1 727.56H795.17V736.93H942.1V727.56Z" fill="#EBEBEB"/>
<path d="M932.43 730.86H806.15V733.64H932.43V730.86Z" fill="#B1B5BA"/>
<path d="M802.74 729.29H796.82V735.21H802.74V729.29Z" fill="#B1B5BA"/>
<path d="M799.331 730.34H798.211V734.15H799.331V730.34Z" fill="#61656D"/>
<path d="M801.35 730.34H800.23V734.15H801.35V730.34Z" fill="#61656D"/>
<path d="M940.721 729.28H934.801V735.2H940.721V729.28Z" fill="#B1B5BA"/>
<path d="M936.84 731.52H935.68V732.96H936.84V731.52Z" fill="#61656D"/>
<path d="M938.141 733.88L936.391 732.96V731.52L938.141 730.6V733.88Z" fill="#61656D"/>
<path d="M939 731.15C939.09 731.06 939.18 730.97 939.26 730.88C939.56 731.18 939.75 731.54 939.81 731.97C939.9 732.6 939.7 733.14 939.27 733.6C939.18 733.51 939.09 733.42 939 733.33C939.29 733.03 939.45 732.66 939.45 732.24C939.45 731.81 939.3 731.45 939 731.15Z" fill="#61656D"/>
<path d="M938.741 733.07C938.651 732.98 938.561 732.89 938.471 732.8C938.621 732.65 938.701 732.46 938.701 732.24C938.701 732.02 938.621 731.84 938.471 731.68C938.561 731.59 938.651 731.5 938.731 731.41C939.181 731.84 939.211 732.6 938.741 733.07Z" fill="#61656D"/>
<path d="M834.71 732.25C834.71 732.75 834.82 733.22 835.03 733.64H806.16V730.85H835.05C834.83 731.27 834.71 731.75 834.71 732.25Z" fill="#61656D"/>
<path d="M841.039 732.25C841.039 732.75 840.929 733.22 840.719 733.64C840.199 734.7 839.109 735.42 837.859 735.42C836.609 735.42 835.519 734.7 835.009 733.64C834.799 733.23 834.689 732.75 834.689 732.25C834.689 731.75 834.809 731.26 835.019 730.85C835.529 729.79 836.599 729.07 837.849 729.07C839.099 729.07 840.169 729.79 840.699 730.85C840.919 731.27 841.039 731.75 841.039 732.25Z" fill="#61656D"/>
<path d="M1008.54 661.63H963.141C960.241 661.63 957.891 659.28 957.891 656.38C957.891 653.48 960.241 651.13 963.141 651.13H1008.54C1011.44 651.13 1013.79 653.48 1013.79 656.38C1013.8 659.28 1011.45 661.63 1008.54 661.63Z" fill="white"/>
<path d="M1064.46 694.34H960.831C959.211 694.34 957.891 693.02 957.891 691.4C957.891 689.78 959.211 688.46 960.831 688.46H1064.46C1066.08 688.46 1067.4 689.78 1067.4 691.4C1067.4 693.03 1066.09 694.34 1064.46 694.34Z" fill="white"/>
<path d="M1064.46 710.7H960.831C959.211 710.7 957.891 709.38 957.891 707.76C957.891 706.14 959.211 704.82 960.831 704.82H1064.46C1066.08 704.82 1067.4 706.14 1067.4 707.76C1067.4 709.38 1066.09 710.7 1064.46 710.7Z" fill="white"/>
<path d="M1064.46 727.06H960.831C959.211 727.06 957.891 725.74 957.891 724.12C957.891 722.5 959.211 721.18 960.831 721.18H1064.46C1066.08 721.18 1067.4 722.5 1067.4 724.12C1067.4 725.74 1066.09 727.06 1064.46 727.06Z" fill="white"/>
<path d="M318.949 298.23H1030.53C1039.96 298.23 1047.61 290.58 1047.61 281.15C1047.61 271.72 1039.96 264.07 1030.53 264.07H318.949C309.519 264.07 301.869 271.72 301.869 281.15C301.869 290.59 309.519 298.23 318.949 298.23Z" fill="#B1B5BA"/>
<path d="M353.281 286.9H1074.39C1084.18 286.9 1092.12 278.96 1092.12 269.17C1092.12 259.38 1084.18 251.44 1074.39 251.44H353.281C343.491 251.44 335.551 259.38 335.551 269.17C335.551 278.96 343.491 286.9 353.281 286.9Z" fill="white"/>
<path opacity="0.7" d="M353.281 286.9H1074.39C1084.18 286.9 1092.12 278.96 1092.12 269.17C1092.12 259.38 1084.18 251.44 1074.39 251.44H353.281C343.491 251.44 335.551 259.38 335.551 269.17C335.551 278.96 343.491 286.9 353.281 286.9Z" fill="white"/>
<path d="M355.78 274.3C359.055 274.3 361.71 271.645 361.71 268.37C361.71 265.095 359.055 262.44 355.78 262.44C352.505 262.44 349.85 265.095 349.85 268.37C349.85 271.645 352.505 274.3 355.78 274.3Z" fill="#FF793F"/>
<path d="M702.6 719.56L244.58 693.1L264.82 342.94C265.34 334 273 327.17 281.94 327.69L707.59 352.29C716.53 352.81 723.36 360.47 722.84 369.41L702.6 719.56Z" fill="white"/>
<path opacity="0.7" d="M264.81 343.07L244.58 693.1L702.6 719.57L722.83 369.54C723.35 360.52 716.46 352.79 707.45 352.27L282.08 327.69C273.06 327.17 265.33 334.06 264.81 343.07Z" fill="white"/>
<path d="M527.679 515.55C526.359 538.37 506.789 555.81 483.959 554.49C461.139 553.17 443.699 533.6 445.019 510.77C446.339 487.95 465.909 470.51 488.739 471.83C511.559 473.15 528.999 492.72 527.679 515.55Z" fill="#FF793F"/>
<path d="M467.91 529.62L469.93 494.68L512.6 514.68L467.91 529.62Z" fill="white"/>
<path d="M246.392 660.118L244.488 693.172L702.468 719.551L704.372 686.497L246.392 660.118Z" fill="white"/>
<path d="M284.491 673.999L283.926 683.802L669.04 705.984L669.605 696.181L284.491 673.999Z" fill="#0F4189"/>
<path opacity="0.7" d="M284.491 673.999L283.926 683.802L669.04 705.984L669.605 696.181L284.491 673.999Z" fill="white"/>
<path opacity="0.7" d="M251.884 666.5L250.676 687.395L271.57 688.602L272.778 667.708L251.884 666.5Z" fill="white"/>
<path d="M257.831 684.09C256.741 684.03 255.901 683.09 255.971 682L256.521 672.51C256.581 671.42 257.521 670.58 258.611 670.65C259.701 670.71 260.541 671.65 260.471 672.74L259.921 682.23C259.861 683.32 258.921 684.15 257.831 684.09Z" fill="#FF793F"/>
<path d="M264.97 684.5C263.88 684.44 263.04 683.5 263.11 682.41L263.66 672.92C263.72 671.83 264.66 670.99 265.75 671.06C266.84 671.12 267.68 672.06 267.61 673.15L267.06 682.64C267 683.73 266.06 684.56 264.97 684.5Z" fill="#FF793F"/>
<g opacity="0.3">
<path opacity="0.3" d="M257.831 684.09C256.741 684.03 255.901 683.09 255.971 682L256.521 672.51C256.581 671.42 257.521 670.58 258.611 670.65C259.701 670.71 260.541 671.65 260.471 672.74L259.921 682.23C259.861 683.32 258.921 684.15 257.831 684.09Z" fill="#FF793F"/>
<path opacity="0.3" d="M264.972 684.5C263.882 684.44 263.041 683.5 263.111 682.41L263.662 672.92C263.722 671.83 264.662 670.99 265.752 671.06C266.842 671.12 267.681 672.06 267.611 673.15L267.062 682.64C267.002 683.73 266.062 684.56 264.972 684.5Z" fill="#FF793F"/>
</g>
<path d="M678.287 691.107L677.08 712.001L697.974 713.209L699.182 692.314L678.287 691.107Z" fill="#0F4189"/>
<path opacity="0.7" d="M678.287 691.107L677.08 712.001L697.974 713.209L699.182 692.314L678.287 691.107Z" fill="white"/>
<path d="M680.961 699.204L680.668 704.275L684.751 704.511L685.044 699.44L680.961 699.204Z" fill="#FF793F"/>
<path d="M689.24 708.02L683.25 704.4L683.55 699.34L689.91 696.44L689.24 708.02Z" fill="#FF793F"/>
<path d="M692.84 698.55C693.17 698.25 693.5 697.96 693.83 697.66C694.82 698.79 695.42 700.1 695.53 701.6C695.7 703.85 694.91 705.72 693.29 707.25C692.99 706.91 692.7 706.58 692.4 706.25C693.5 705.24 694.13 703.99 694.22 702.49C694.3 700.99 693.81 699.68 692.84 698.55Z" fill="#FF793F"/>
<path d="M691.499 705.26C691.209 704.93 690.919 704.6 690.619 704.27C691.179 703.76 691.509 703.12 691.549 702.34C691.589 701.57 691.339 700.9 690.839 700.32C691.169 700.02 691.499 699.73 691.829 699.44C693.309 701.02 693.279 703.71 691.499 705.26Z" fill="#FF793F"/>
<g opacity="0.3">
<g opacity="0.3">
<path opacity="0.3" d="M680.961 699.204L680.668 704.275L684.751 704.511L685.044 699.44L680.961 699.204Z" fill="#FF793F"/>
<path opacity="0.3" d="M689.24 708.02L683.25 704.4L683.55 699.34L689.91 696.44L689.24 708.02Z" fill="#FF793F"/>
</g>
<g opacity="0.3">
<g opacity="0.3">
<path opacity="0.3" d="M692.84 698.55C693.17 698.25 693.5 697.96 693.83 697.66C694.82 698.79 695.42 700.1 695.53 701.6C695.7 703.85 694.91 705.72 693.29 707.25C692.99 706.91 692.7 706.58 692.4 706.25C693.5 705.24 694.13 703.99 694.22 702.49C694.3 700.99 693.81 699.68 692.84 698.55Z" fill="black"/>
<path opacity="0.3" d="M691.501 705.26C691.211 704.93 690.921 704.6 690.621 704.27C691.181 703.76 691.511 703.12 691.551 702.34C691.591 701.57 691.341 700.9 690.841 700.32C691.171 700.02 691.501 699.73 691.831 699.44C693.311 701.02 693.281 703.71 691.501 705.26Z" fill="black"/>
</g>
</g>
</g>
<path d="M385.06 684.71C384.96 686.47 385.25 688.17 385.89 689.67L283.98 683.78L284.55 673.95L386.5 679.84C385.7 681.26 385.17 682.95 385.06 684.71Z" fill="#FF793F"/>
<path d="M407.44 686C407.34 687.76 406.86 689.41 406.04 690.83C403.98 694.46 400.01 696.77 395.59 696.52C391.17 696.26 387.49 693.51 385.9 689.67C385.25 688.17 384.96 686.47 385.07 684.71C385.17 682.95 385.7 681.26 386.51 679.84C388.53 676.21 392.46 673.89 396.88 674.15C401.3 674.41 404.94 677.16 406.57 681C407.21 682.5 407.54 684.24 407.44 686Z" fill="#FF793F"/>
<g opacity="0.3">
<path opacity="0.3" d="M385.06 684.71C384.96 686.47 385.25 688.17 385.89 689.67L283.98 683.78L284.55 673.95L386.5 679.84C385.7 681.26 385.17 682.95 385.06 684.71Z" fill="#FF793F"/>
<path opacity="0.3" d="M407.44 686C407.34 687.76 406.86 689.41 406.04 690.83C403.98 694.46 400.01 696.77 395.59 696.52C391.17 696.26 387.49 693.51 385.9 689.67C385.25 688.17 384.96 686.47 385.07 684.71C385.17 682.95 385.7 681.26 386.51 679.84C388.53 676.21 392.46 673.89 396.88 674.15C401.3 674.41 404.94 677.16 406.57 681C407.21 682.5 407.54 684.24 407.44 686Z" fill="#FF793F"/>
</g>
<path d="M324.549 327.45C324.549 327.45 338.519 331.97 339.399 332.55C340.279 333.13 348.809 345.31 348.809 345.31C348.809 345.31 348.809 345.31 346.159 346C343.509 346.69 334.919 337.37 334.699 336.85C334.479 336.33 324.319 334.3 323.049 334.07C321.769 333.84 314.579 335.61 313.639 337.91C312.689 340.22 319.889 344.43 321.969 345.29C324.549 346.35 323.159 350.23 323.159 350.23C320.449 350.42 312.989 347.71 309.849 345.81C306.709 343.91 299.309 339.35 296.719 339.08C294.129 338.8 268.979 340.99 268.979 340.99L209.149 343.65C199.209 344.09 192.069 334.21 195.619 324.91L215.159 273.64L228.819 260.2L238.259 319.89C238.259 319.89 322.629 322.41 323.939 322.57C325.249 322.73 352.349 330.95 352.779 331.66C353.209 332.37 348.919 336.01 340.469 333.77L339.399 332.53L324.549 327.45Z" fill="#F89999"/>
<path d="M333.609 325.37L347.039 324.26C347.039 324.26 346.979 327.32 344.079 328.62L333.609 325.37Z" fill="#F89999"/>
<path d="M327.1 323.44C327.1 323.44 337.97 321.76 338.6 321.81C339.45 321.89 341.01 323.76 339.03 324.92L333.6 325.37L327.1 323.44Z" fill="#F89999"/>
<path opacity="0.15" d="M340.44 333.77C339.74 332.99 338.92 332.4 337.93 332.03L327.57 328.08L338.39 331.24C339.45 331.55 340.35 332.27 340.88 333.24L341.31 334.02L340.44 333.77Z" fill="black"/>
<path opacity="0.15" d="M329.02 324.64L346.52 330.72C346.52 330.72 347.14 330.4 347.39 330.09L329.02 324.64Z" fill="black"/>
<path opacity="0.15" d="M341.89 326.07L334.82 326.36L335.43 326.54L341.74 326.67C341.74 326.68 341.8 326.61 341.89 326.07Z" fill="black"/>
<path d="M280.03 321.13L240.49 319.19L228.82 260.2L215.16 273.64L195.62 324.91C192.08 334.21 199.21 344.09 209.15 343.65C209.15 343.65 268.72 341.3 275.74 340.43L280.03 321.13Z" fill="#0F4189"/>
<path opacity="0.6" d="M280.03 321.13L275.74 340.43L272.1 340.75L276.06 320.93L280.03 321.13Z" fill="black"/>
<path d="M976.54 241.09L962.15 244.94L952.34 250.94L958.95 250.93L966.74 250.94H987.41C987.92 251.26 988.32 251.65 988.61 252.09C992.22 257.78 978.61 258.24 978.22 261.27C978.22 261.3 978.21 261.33 978.21 261.36C978.02 263.37 979.77 265.03 981.78 264.87C986.22 264.52 997.81 264.59 1006.81 251.45L1005.82 237.16C1005.82 237.16 976.8 237.36 975.05 237.71C974.11 237.9 961.77 242.31 961.77 242.31C961.77 242.31 949.8 250.8 949.57 250.93L962.98 250.92" fill="#F79898"/>
<path opacity="0.2" d="M954.881 250.74L964.451 244.94L978.581 242.44" stroke="black" stroke-miterlimit="10" stroke-linecap="round" stroke-linejoin="round"/>
<path opacity="0.15" d="M228.96 261.39C228.96 261.39 230.09 264.72 227.07 284.44L231.84 300.74C233.95 307.96 232.33 315.76 227.52 321.54L221.54 328.73C221.54 328.73 219.44 330.95 219.14 335.18C218.84 339.41 219.66 343.23 219.66 343.23L229.06 342.77L272.09 340.75L273.16 335.42L236.04 335.75C234.77 331.6 240.48 319.19 240.48 319.19L228.96 261.39Z" fill="black"/>
<path opacity="0.15" d="M318.98 349.4C313.41 346.96 301.97 337.07 299.02 336.44C296.07 335.81 276.85 335.43 276.85 335.43L275.74 340.43C275.74 340.43 295.38 338.73 296.72 339.08C298.06 339.43 302.91 341.45 308.64 345.08C314.37 348.71 318.98 349.4 318.98 349.4Z" fill="black"/>
<path d="M195.6 385.33L235.76 398.5C235.76 398.5 255.51 410.64 258.24 411.29C260.96 411.94 284.5 417.09 285.18 416.79C285.86 416.49 285.06 412.84 282.49 411.97C280.75 411.38 275.73 410.07 275.73 410.07L274.31 410.38L261.77 408.28C261.77 408.28 272.47 410.49 274.44 410.37C276.41 410.25 288.27 405.09 288.27 405.09C288.27 405.09 287.78 402.99 285.42 402.5C283.06 402.01 275.17 404.53 270.5 404.53C265.83 404.53 258.33 398.5 258.02 395.55C257.71 392.6 265.51 392.81 265.51 392.81C271.87 392.98 275.92 390.31 268.84 388.07C261.76 385.83 249.74 387.42 246.95 386.66C244.15 385.9 241.8 384.3 241.8 384.3L208.6 364.31L195.74 385.15" fill="#F89999"/>
<path d="M266.77 413.18L279.8 420.56C280.42 417.17 279.35 415.82 279.35 415.82L266.77 413.18Z" fill="#F89999"/>
<path d="M273.161 416.8C272.521 420.45 268.461 418.14 267.791 417.2C267.121 416.26 261.221 411.97 261.221 411.97H270.431L273.161 416.8Z" fill="#F89999"/>
<path d="M174.219 233.27C179.797 233.27 184.319 228.748 184.319 223.17C184.319 217.592 179.797 213.07 174.219 213.07C168.641 213.07 164.119 217.592 164.119 223.17C164.119 228.748 168.641 233.27 174.219 233.27Z" fill="#21252B"/>
<path d="M222.4 213.409C224.76 211.389 226.46 208.549 227 205.199C228.11 198.289 223.6 191.469 216.8 189.789C209.23 187.919 201.7 192.719 200.14 200.289C199.17 204.969 200.73 209.579 203.88 212.719C202.33 213.719 201.05 215.109 200.18 216.789C197.87 213.669 194.26 211.499 189.91 211.259C183.82 210.919 178.14 214.819 176.25 220.619C173.68 228.509 178.56 236.659 186.46 238.289C191.47 239.319 196.39 237.469 199.52 233.869C201.2 231.929 203.9 231.079 206.34 231.869C207.36 232.199 208.46 232.389 209.62 232.409C214.01 232.469 218.08 229.689 219.64 225.579C220.4 223.579 220.53 221.539 220.16 219.649C219.7 217.309 220.59 214.959 222.4 213.409Z" fill="#21252B"/>
<path d="M218.5 190.34C213.03 187.39 208.24 184.46 208.66 178.84C208.77 177.37 209.2 174.87 209.2 174.87L201.55 168.63L185.35 166.61L182.83 210.99L201.69 220.42L218.5 190.34Z" fill="#21252B"/>
<path d="M152.5 196.159L151.26 231.039C151.14 233.849 149.18 236.259 146.47 237.009L142.49 238.109L151.56 243.729C160.61 249.449 171.78 250.479 181.61 246.789C183.4 246.119 185.15 245.279 186.84 244.289L196.77 238.449L192.32 237.159C189.81 236.459 187.98 234.219 187.71 231.699L183.48 190.189L152.5 196.159Z" fill="#F59696"/>
<path d="M176.99 224.7L175.34 224.78C163.42 225.17 153.51 215.89 153.11 204.06L152.08 173.91C151.92 169.94 155.04 166.66 159.02 166.5L187.23 165.46C192.37 165.31 196.7 169.31 196.85 174.45L197.8 202.47C198.1 214.3 188.82 224.3 176.99 224.7Z" fill="#F59696"/>
<path d="M174.93 194.05C176.217 194.05 177.26 193.006 177.26 191.72C177.26 190.433 176.217 189.39 174.93 189.39C173.643 189.39 172.6 190.433 172.6 191.72C172.6 193.006 173.643 194.05 174.93 194.05Z" fill="#21252B"/>
<path d="M175.89 191.73C176.155 191.73 176.37 191.515 176.37 191.25C176.37 190.984 176.155 190.77 175.89 190.77C175.625 190.77 175.41 190.984 175.41 191.25C175.41 191.515 175.625 191.73 175.89 191.73Z" fill="white"/>
<path d="M193.051 194.2C194.338 194.2 195.381 193.156 195.381 191.87C195.381 190.583 194.338 189.54 193.051 189.54C191.764 189.54 190.721 190.583 190.721 191.87C190.721 193.156 191.764 194.2 193.051 194.2Z" fill="#21252B"/>
<path d="M194.019 191.779C194.284 191.779 194.499 191.564 194.499 191.299C194.499 191.034 194.284 190.819 194.019 190.819C193.754 190.819 193.539 191.034 193.539 191.299C193.539 191.564 193.754 191.779 194.019 191.779Z" fill="white"/>
<g opacity="0.15">
<path opacity="0.15" d="M184.511 205.37L181.411 205.64C181.021 205.64 180.731 205.34 180.641 205.05C180.641 204.66 180.941 204.37 181.231 204.28L184.331 204.01C185.111 203.92 185.691 203.25 185.601 202.47C185.511 201.69 184.841 201.11 184.061 201.1C183.671 201.1 183.381 200.8 183.291 200.51C183.291 200.12 183.591 199.83 183.881 199.74C185.431 199.66 186.781 200.83 186.861 202.28C187.231 203.94 186.061 205.29 184.511 205.37Z" fill="black"/>
</g>
<path opacity="0.15" d="M186.78 221.929C183.47 223.839 179.68 224.689 175.71 224.849C174.84 224.839 173.97 224.839 173.09 224.829C172.8 224.829 172.41 224.819 172.12 224.729C172.02 224.729 172.02 224.729 171.93 224.729C171.45 224.629 170.96 224.629 170.38 224.519C170.19 224.519 169.99 224.419 169.8 224.419C166.41 223.809 163.9 222.629 162.26 221.649C161.97 221.449 161.58 221.549 161.39 221.839C161.19 222.129 161.29 222.519 161.58 222.709C163.7 223.989 166.99 225.469 171.44 225.979C173.75 227.739 177.71 229.909 182.75 229.939C184.4 229.949 186.05 229.769 187.6 229.399L186.78 221.929Z" fill="black"/>
<path d="M186.221 209.07C186.511 209.07 186.701 209.36 186.601 209.65C185.421 211.87 183.181 213.4 180.561 213.38C177.941 213.36 175.731 211.79 174.581 209.55C174.491 209.26 174.581 208.97 174.971 208.97L186.221 209.07Z" fill="white"/>
<path d="M142.481 238.11C142.351 254.7 173.001 268.53 173.001 268.53C173.001 268.53 196.631 255.07 196.761 238.47L191.631 236.93L142.481 238.11Z" fill="#F59696"/>
<path d="M193.679 184.99C190.769 185.26 188.239 186.79 186.669 189.01C184.059 188.12 181.829 188.68 180.849 189.06C179.129 186.14 175.849 184.27 172.159 184.53C167.019 184.88 163.109 189.4 163.459 194.54C163.809 199.68 168.329 203.59 173.469 203.24C178.609 202.89 182.519 198.37 182.169 193.23C182.079 192.16 181.799 191.19 181.419 190.22C182.289 189.94 184.139 189.56 186.069 190.16C185.279 191.61 184.979 193.35 185.059 195.09C185.409 200.23 189.929 204.14 195.069 203.79C200.209 203.44 204.119 198.92 203.769 193.78C203.439 188.66 198.909 184.74 193.679 184.99ZM173.579 201.99C169.119 202.34 165.269 198.92 164.919 194.46C164.569 190 167.989 186.15 172.449 185.8C176.909 185.45 180.759 188.87 181.109 193.33C181.369 197.79 177.949 201.74 173.579 201.99ZM194.999 202.55C190.539 202.9 186.689 199.48 186.339 195.02C185.989 190.56 189.409 186.71 193.869 186.36C198.329 186.01 202.179 189.43 202.529 193.89C202.879 198.34 199.459 202.19 194.999 202.55Z" fill="white"/>
<path d="M152.529 255.43L190.399 253.81C190.399 253.81 188.289 256.91 182.959 261.47C178.529 265.26 172.989 268.53 172.989 268.53C172.989 268.53 167.589 266.08 161.649 262.24C155.889 258.52 152.529 255.43 152.529 255.43Z" fill="#21252B"/>
<path d="M209.169 175C210.459 166.56 206.899 159.84 198.939 159.42C196.879 159.31 194.739 160 193.269 160.12C189.929 160.37 186.719 158.92 184.609 156.32C181.039 151.91 175.469 146.73 168.649 146.91C160.679 147.12 155.289 154.75 155.619 159.96C137.329 157.96 131.409 170.6 130.519 175.55C130.299 176.75 129.439 177.7 128.259 178C124.179 179.05 121.059 182.62 120.779 187.05C120.579 190.27 121.939 193.22 124.199 195.19C126.259 197.2 128.239 199.42 128.039 202.53C127.959 203.78 127.709 204.72 126.959 206.25C126.209 207.54 124.909 209.97 124.689 211.55C121.549 234.16 147.719 234.84 150.979 234.9C162.319 235.12 165.679 227.02 165.129 222.61C164.689 219.05 161.529 216.3 158.649 214.27C156.709 212.9 155.219 210.93 154.669 208.62C154.449 207.7 154.359 206.74 154.429 205.75C154.499 204.55 154.789 203.41 155.249 202.37C155.539 201.72 154.459 201 154.869 200.43L154.119 200.38C155.499 198.69 152.639 197.56 152.789 195.22C152.999 191.77 153.169 188.86 153.259 187.41C153.259 187.41 162.909 186.23 164.569 171.1C165.829 171.55 167.159 171.85 168.559 171.93C173.459 172.23 177.939 170.05 180.779 166.46V166.47L180.909 166.44C181.359 173.59 187.069 179.46 194.409 179.92C199.299 180.22 202.749 177.93 204.799 174.28L209.169 175Z" fill="#21252B"/>
<path d="M154.881 205.94C154.881 205.94 144.581 206.39 142.751 196.22C140.931 185.96 153.591 184.51 155.011 194.83L156.031 206.07L154.881 205.94Z" fill="#F59696"/>
<path opacity="0.15" d="M146.099 190.96C147.259 190.22 148.259 190.04 149.209 190.25C150.159 190.46 150.959 191.14 151.609 192.29C152.259 193.44 152.679 194.85 152.599 196.31L152.569 197.38C152.579 198.16 151.179 198.39 151.199 197.41C151.139 196.23 151.139 196.23 151.139 196.23C151.189 195.85 151.009 193.97 150.359 192.92C149.869 192.08 149.339 191.63 148.769 191.47C148.199 191.31 147.499 191.52 146.659 192C146.349 192.16 145.959 192.11 145.709 191.79C145.639 191.49 145.779 191.12 146.099 190.96Z" fill="black"/>
<path d="M152.2 204.27C153.327 204.27 154.24 203.357 154.24 202.23C154.24 201.103 153.327 200.19 152.2 200.19C151.073 200.19 150.16 201.103 150.16 202.23C150.16 203.357 151.073 204.27 152.2 204.27Z" fill="#0F4189"/>
<path opacity="0.15" d="M152.86 204.05C151.6 204 150.64 203.01 150.69 201.75C150.74 201.36 150.89 200.9 151.11 200.63C150.58 200.96 150.22 201.6 150.14 202.27C150.1 203.44 150.97 204.32 152.14 204.36C152.53 204.41 153.03 204.27 153.35 204.01C153.16 203.98 152.96 203.96 152.86 204.05Z" fill="black"/>
</svg>
