<svg width="21" height="20" viewBox="0 0 21 20" fill="none" xmlns="http://www.w3.org/2000/svg">
<g clip-path="url(#clip0_2_398)">
<path d="M18.5778 0C19.1672 0 19.7324 0.234126 20.1492 0.650874C20.5659 1.06762 20.8 1.63285 20.8 2.22222V17.7778C20.8 18.3671 20.5659 18.9324 20.1492 19.3491C19.7324 19.7659 19.1672 20 18.5778 20H3.02227C2.4329 20 1.86767 19.7659 1.45092 19.3491C1.03418 18.9324 0.800049 18.3671 0.800049 17.7778V2.22222C0.800049 1.63285 1.03418 1.06762 1.45092 0.650874C1.86767 0.234126 2.4329 0 3.02227 0H18.5778ZM18.0223 17.2222V11.3333C18.0223 10.3727 17.6406 9.45133 16.9613 8.77204C16.282 8.09274 15.3607 7.71111 14.4 7.71111C13.4556 7.71111 12.3556 8.28889 11.8223 9.15556V7.92222H8.72227V17.2222H11.8223V11.7444C11.8223 10.8889 12.5112 10.1889 13.3667 10.1889C13.7793 10.1889 14.1749 10.3528 14.4667 10.6445C14.7584 10.9362 14.9223 11.3319 14.9223 11.7444V17.2222H18.0223ZM5.11116 6.17778C5.60623 6.17778 6.08103 5.98111 6.43109 5.63104C6.78116 5.28098 6.97783 4.80618 6.97783 4.31111C6.97783 3.27778 6.14449 2.43333 5.11116 2.43333C4.61314 2.43333 4.13552 2.63117 3.78337 2.98332C3.43122 3.33547 3.23338 3.81309 3.23338 4.31111C3.23338 5.34444 4.07783 6.17778 5.11116 6.17778ZM6.65561 17.2222V7.92222H3.57783V17.2222H6.65561Z" fill="#2B2E4A"/>
</g>
<defs>
<clipPath id="clip0_2_398">
<rect width="20" height="20" fill="white" transform="translate(0.800049)"/>
</clipPath>
</defs>
</svg>
