<svg width="32" height="34" viewBox="0 0 32 34" fill="none" xmlns="http://www.w3.org/2000/svg">
<g clip-path="url(#clip0_2_387)">
<path d="M11.4667 26.6533C10.8019 26.6533 10.1643 26.9174 9.69421 27.3875C9.22412 27.8576 8.96002 28.4952 8.96002 29.16V31.3467C8.96002 32.0115 9.22412 32.649 9.69421 33.1191C10.1643 33.5892 10.8019 33.8533 11.4667 33.8533C12.1315 33.8533 12.7691 33.5892 13.2392 33.1191C13.7093 32.649 13.9734 32.0115 13.9734 31.3467V29.16C13.9734 28.4952 13.7093 27.8576 13.2392 27.3875C12.7691 26.9174 12.1315 26.6533 11.4667 26.6533Z" fill="#3742FA"/>
<path d="M31.9999 16.1466C32.0017 17.8428 31.7334 19.5284 31.2053 21.1402L31.2015 21.1519C31.1482 21.1573 31.0949 21.1599 31.0415 21.1599C30.9564 21.1601 30.8713 21.1535 30.7871 21.1402C30.329 21.0693 29.9189 20.8095 29.6085 20.4261C29.2399 19.9722 29.0133 19.3466 29.0133 18.6533V14.4399C29.0133 13.7751 28.7492 13.1375 28.2791 12.6675C27.809 12.1974 27.1714 11.9333 26.5066 11.9333C25.8418 11.9333 25.2042 12.1974 24.7341 12.6675C24.264 13.1375 24 13.7751 24 14.4399V24.4666C24 24.7958 23.9351 25.1217 23.8091 25.4259C23.6832 25.73 23.4985 26.0063 23.2658 26.2391C23.033 26.4719 22.7567 26.6565 22.4525 26.7825C22.1484 26.9084 21.8225 26.9733 21.4933 26.9733C21.1641 26.9733 20.8382 26.9084 20.534 26.7825C20.2299 26.6565 19.9536 26.4719 19.7208 26.2391C19.488 26.0063 19.3034 25.73 19.1774 25.4259C19.0515 25.1217 18.9866 24.7958 18.9866 24.4666V7.39994C18.9866 6.73513 18.7225 6.09755 18.2524 5.62746C17.7824 5.15737 17.1448 4.89327 16.48 4.89327C15.8152 4.89327 15.1776 5.15737 14.7075 5.62746C14.2374 6.09755 13.9733 6.73513 13.9733 7.39994V20.4666C13.9733 21.1314 13.7092 21.769 13.2391 22.2391C12.769 22.7092 12.1315 22.9733 11.4666 22.9733C10.8018 22.9733 10.1643 22.7092 9.69417 22.2391C9.22408 21.769 8.95998 21.1314 8.95998 20.4666V14.7066C8.95998 14.0418 8.69589 13.4042 8.2258 12.9341C7.75571 12.464 7.11813 12.1999 6.45332 12.1999C5.78851 12.1999 5.15093 12.464 4.68084 12.9341C4.21075 13.4042 3.94666 14.0418 3.94666 14.7066V17.8533C3.94666 19.2399 2.97973 20.3599 1.78666 20.3599C1.51031 20.3602 1.23726 20.2999 0.986664 20.1834C0.776363 20.0859 0.583703 19.9541 0.416532 19.7935C-0.254138 16.9073 -0.114795 13.892 0.819197 11.0799C0.842131 11.0117 0.865597 10.9434 0.889064 10.8757C3.01279 4.78661 8.70985 0.376473 15.4666 0.155673C15.6437 0.149273 15.8213 0.146606 16 0.146606C22.9264 0.146606 28.825 4.54767 31.0511 10.7066C31.0565 10.7205 31.0613 10.7338 31.0661 10.7477C31.6859 12.4801 32.0019 14.3066 31.9999 16.1466V16.1466Z" fill="#3742FA"/>
</g>
<defs>
<clipPath id="clip0_2_387">
<rect width="32" height="33.7067" fill="white" transform="translate(0 0.146606)"/>
</clipPath>
</defs>
</svg>
