<svg width="20" height="20" viewBox="0 0 20 20" fill="none" xmlns="http://www.w3.org/2000/svg">
<path d="M12.7462 8.54688C12.7456 8.93207 12.5923 9.30129 12.3199 9.57366C12.0475 9.84603 11.6783 9.99934 11.2931 10H8.54688V7.09375H11.2931C11.6783 7.09441 12.0475 7.24772 12.3199 7.52009C12.5923 7.79246 12.7456 8.16169 12.7462 8.54688ZM19.6875 10C19.6875 15.3519 15.3512 19.6875 10 19.6875C4.64875 19.6875 0.3125 15.3512 0.3125 10C0.3125 4.64813 4.64875 0.3125 10 0.3125C15.3512 0.3125 19.6875 4.64875 19.6875 10ZM14.6838 8.54688C14.6833 7.64778 14.3259 6.78565 13.6901 6.14989C13.0544 5.51413 12.1922 5.15675 11.2931 5.15625H6.60938V14.8438H8.54688V11.9375H11.2931C12.1922 11.937 13.0544 11.5796 13.6901 10.9439C14.3259 10.3081 14.6833 9.44597 14.6838 8.54688Z" fill="#DE5338"/>
</svg>
