<svg width="21" height="20" viewBox="0 0 21 20" fill="none" xmlns="http://www.w3.org/2000/svg">
<g clip-path="url(#clip0_2_407)">
<path d="M13.5463 8.54688C13.5456 8.93207 13.3923 9.30129 13.12 9.57366C12.8476 9.84603 12.4784 9.99934 12.0932 10H9.34692V7.09375H12.0932C12.4784 7.09441 12.8476 7.24772 13.12 7.52009C13.3923 7.79246 13.5456 8.16169 13.5463 8.54688ZM20.4875 10C20.4875 15.3519 16.1513 19.6875 10.8 19.6875C5.4488 19.6875 1.11255 15.3512 1.11255 10C1.11255 4.64813 5.4488 0.3125 10.8 0.3125C16.1513 0.3125 20.4875 4.64875 20.4875 10ZM15.4838 8.54688C15.4833 7.64778 15.1259 6.78565 14.4902 6.14989C13.8544 5.51413 12.9923 5.15675 12.0932 5.15625H7.40942V14.8438H9.34692V11.9375H12.0932C12.9923 11.937 13.8544 11.5796 14.4902 10.9439C15.1259 10.3081 15.4833 9.44597 15.4838 8.54688Z" fill="#2B2E4A"/>
</g>
<defs>
<clipPath id="clip0_2_407">
<rect width="20" height="20" fill="white" transform="translate(0.800049)"/>
</clipPath>
</defs>
</svg>
