<svg width="78" height="33" viewBox="0 0 78 33" fill="none" xmlns="http://www.w3.org/2000/svg">
<path fill-rule="evenodd" clip-rule="evenodd" d="M25.0988 30.879C21.3382 27.2426 19 22.1444 19 16.5C19 10.8556 21.3382 5.75738 25.0988 2.12098C22.7063 0.770576 19.9431 0 17 0C7.8873 0 0.5 7.3873 0.5 16.5C0.5 25.6127 7.8873 33 17 33C19.9431 33 22.7063 32.2294 25.0988 30.879Z" fill="#172126"/>
<path fill-rule="evenodd" clip-rule="evenodd" d="M47.0988 30.879C43.3382 27.2426 41 22.1444 41 16.5C41 10.8556 43.3382 5.75738 47.0988 2.12098C44.7063 0.770576 41.9431 0 39 0C29.8873 0 22.5 7.3873 22.5 16.5C22.5 25.6127 29.8873 33 39 33C41.9431 33 44.7063 32.2294 47.0988 30.879Z" fill="#93A3B6"/>
<circle cx="61" cy="16.5" r="16.5" fill="#EE5253"/>
</svg>
